<svg xmlns="http://www.w3.org/2000/svg" width="750" height="750" viewBox="0 0 750 750">
<g>
<path d="M 92.61,424.18 L 91.68,426.97 L 90.78,428.69 L 90.33,429.18 L 89.44,430.02 L 88.95,430.28 L 87.95,430.70 L 87.43,430.76 L 86.39,430.81 L 85.88,430.70 L 84.86,430.40 L 84.39,430.13 L 83.46,429.53 L 83.05,429.13 L 82.28,428.26 L 81.98,427.73 L 81.43,426.63 L 81.26,426.01 L 81.00,424.71 L 81.00,421.00 L 93.25,421.00 M 646.27,359.14 L 648.12,359.77 L 650.55,361.45 L 651.22,362.13 L 652.28,362.94 L 652.50,363.09 L 652.81,363.20 L 653.00,363.07 L 653.00,362.95 L 653.29,362.61 L 653.47,362.42 L 654.07,361.97 L 656.64,360.50 L 657.56,360.06 L 659.44,359.52 L 660.38,359.31 L 662.26,359.19 L 663.19,359.19 L 665.02,359.48 L 665.92,359.67 L 667.64,360.35 L 668.48,360.73 L 670.04,361.76 L 670.79,362.32 L 672.15,363.68 L 672.79,364.40 L 673.89,366.08 L 675.19,368.91 L 675.40,369.54 L 675.74,371.16 L 675.89,372.02 L 676.11,374.02 L 676.29,376.08 L 676.31,380.70 L 676.26,383.01 L 675.84,387.27 L 675.70,388.26 L 675.35,389.97 L 674.72,392.00 L 674.22,393.12 L 673.01,395.08 L 672.37,396.01 L 670.91,397.59 L 670.15,398.33 L 668.48,399.51 L 667.63,400.05 L 665.81,400.81 L 664.89,401.14 L 662.98,401.47 L 662.02,401.57 L 660.06,401.44 L 659.08,401.32 L 657.13,400.71 L 654.26,399.25 L 652.00,397.77 L 652.00,410.29 L 651.99,412.56 L 651.99,413.62 L 651.96,415.32 L 651.94,416.11 L 651.86,417.34 L 651.81,417.90 L 651.67,418.74 L 651.59,419.13 L 651.36,419.68 L 651.24,419.92 L 650.91,420.28 L 649.43,421.02 L 648.67,421.31 L 647.45,421.67 L 646.87,421.82 L 645.82,421.88 L 645.30,421.88 L 644.21,421.65 L 643.63,421.50 L 642.25,420.97 L 640.00,420.06 L 639.98,392.78 L 639.98,389.03 L 639.91,382.08 L 639.89,380.41 L 639.82,377.32 L 639.79,375.81 L 639.71,373.10 L 639.67,371.80 L 639.58,369.56 L 639.53,368.50 L 639.43,366.80 L 639.38,366.02 L 639.26,364.94 L 639.09,364.10 L 638.84,363.72 L 637.99,363.30 L 636.60,363.32 L 636.21,363.47 L 635.65,363.61 L 635.41,363.66 L 635.11,363.62 L 634.87,363.55 L 635.08,363.01 L 635.29,362.70 L 636.27,361.88 L 638.40,360.61 L 639.64,360.03 L 641.98,359.34 L 643.13,359.09 L 645.25,359.06 M 515.91,340.70 L 517.95,340.89 L 521.53,341.59 L 523.23,342.00 L 526.14,343.15 L 527.51,343.78 L 529.74,345.37 L 530.77,346.22 L 532.31,348.25 L 533.00,349.32 L 533.84,351.78 L 534.31,355.95 L 534.28,357.45 L 533.79,360.19 L 533.47,361.51 L 532.42,363.84 L 531.82,364.95 L 530.23,366.80 L 527.28,368.99 L 524.07,370.71 L 526.44,372.94 L 526.60,373.10 L 527.06,373.67 L 527.32,374.01 L 527.94,374.91 L 528.27,375.40 L 529.02,376.58 L 529.41,377.20 L 530.27,378.62 L 531.15,380.09 L 533.12,383.54 L 536.16,389.14 L 537.22,391.17 L 539.16,394.72 L 540.09,396.42 L 541.79,399.32 L 542.61,400.70 L 544.09,403.00 L 544.81,404.08 L 546.12,405.81 L 546.76,406.62 L 547.93,407.83 L 548.50,408.38 L 549.57,409.12 L 550.09,409.44 L 551.08,409.74 L 552.52,409.75 L 553.40,409.58 L 554.58,409.60 L 555.06,409.66 L 555.42,410.04 L 555.49,410.26 L 554.99,410.88 L 553.22,411.95 L 552.78,412.15 L 551.67,412.51 L 551.09,412.68 L 549.78,412.97 L 548.44,413.24 L 545.49,413.56 L 544.02,413.67 L 541.36,413.63 L 540.75,413.59 L 539.69,413.44 L 539.19,413.36 L 538.45,413.10 L 537.94,412.88 L 536.91,412.21 L 536.38,411.82 L 535.28,410.79 L 534.72,410.23 L 533.53,408.82 L 532.92,408.06 L 531.62,406.23 L 530.95,405.25 L 529.52,402.97 L 528.79,401.76 L 527.20,398.99 L 526.38,397.54 L 524.61,394.25 L 521.73,388.68 L 520.60,386.46 L 518.52,382.31 L 517.52,380.32 L 515.84,376.93 L 515.45,376.14 L 514.79,374.78 L 514.48,374.14 L 513.98,373.09 L 513.75,372.62 L 513.44,371.94 L 513.21,371.38 L 513.17,371.23 L 513.34,370.90 L 513.46,370.74 L 513.90,370.42 L 516.00,369.65 L 516.54,369.54 L 517.52,369.13 L 517.98,368.89 L 518.81,368.22 L 519.21,367.86 L 519.88,366.93 L 520.20,366.44 L 520.73,365.26 L 520.97,364.64 L 521.35,363.22 L 521.51,362.47 L 521.74,360.80 L 521.83,359.93 L 521.89,358.01 L 521.82,354.86 L 521.77,353.85 L 521.57,352.07 L 521.46,351.21 L 521.16,349.72 L 520.99,349.01 L 520.57,347.81 L 520.34,347.25 L 519.79,346.33 L 519.50,345.90 L 518.81,345.24 L 518.45,344.94 L 517.62,344.53 L 517.19,344.36 L 516.21,344.19 L 514.55,344.20 L 511.50,344.50 L 510.93,375.21 L 510.75,382.08 L 510.70,383.72 L 510.59,386.77 L 510.54,388.25 L 510.42,390.91 L 510.37,392.19 L 510.25,394.39 L 510.19,395.43 L 510.07,397.09 L 510.02,397.84 L 509.90,398.89 L 509.74,399.67 L 509.39,400.21 L 508.08,400.95 L 507.35,401.27 L 505.58,401.57 L 504.67,401.66 L 502.84,401.46 L 500.46,400.57 L 498.00,398.95 L 498.00,370.07 L 497.95,363.57 L 497.94,362.02 L 497.90,359.11 L 497.87,357.71 L 497.82,355.16 L 497.79,353.94 L 497.73,351.82 L 497.70,350.82 L 497.63,349.20 L 497.59,348.46 L 497.51,347.42 L 497.39,346.58 L 497.25,346.21 L 496.68,345.68 L 496.35,345.45 L 495.47,345.18 L 495.00,345.07 L 493.88,345.05 L 493.30,345.07 L 492.02,345.28 L 490.72,345.54 L 487.98,346.69 L 484.25,349.24 L 483.60,349.85 L 482.64,351.55 L 482.00,354.17 L 482.00,354.74 L 482.10,355.57 L 482.17,355.94 L 482.45,356.43 L 482.62,356.64 L 483.14,356.87 L 484.25,356.98 L 484.87,356.98 L 486.27,356.70 L 487.97,356.04 L 488.46,355.73 L 489.34,355.57 L 489.76,355.56 L 490.46,355.92 L 490.79,356.15 L 491.30,356.88 L 491.53,357.29 L 491.82,358.28 L 491.93,358.80 L 491.96,359.93 L 491.94,360.49 L 491.69,361.63 L 491.53,362.18 L 490.98,363.20 L 489.78,364.44 L 489.06,364.94 L 487.59,365.56 L 486.84,365.80 L 485.37,365.93 L 484.63,365.94 L 483.22,365.63 L 482.53,365.42 L 481.24,364.71 L 480.62,364.31 L 479.53,363.25 L 479.02,362.67 L 478.19,361.30 L 477.82,360.58 L 477.31,358.93 L 477.00,356.20 L 477.01,355.17 L 477.41,353.24 L 477.68,352.30 L 478.61,350.57 L 479.14,349.72 L 480.59,348.19 L 481.38,347.44 L 483.34,346.11 L 484.38,345.47 L 486.85,344.34 L 488.14,343.80 L 491.09,342.89 L 492.63,342.46 L 496.07,341.77 L 501.77,340.98 L 504.44,340.70 L 509.32,340.50 L 511.68,340.45 M 215.46,338.08 L 217.29,338.53 L 219.35,339.83 L 219.68,340.20 L 220.17,341.26 L 220.39,341.87 L 220.68,343.70 L 220.74,344.22 L 220.83,345.48 L 220.87,346.16 L 220.93,347.75 L 220.96,348.59 L 220.98,350.57 L 221.00,354.02 L 221.00,366.37 L 223.75,363.81 L 224.67,362.95 L 226.38,361.61 L 227.21,361.00 L 228.82,360.12 L 229.63,359.73 L 231.23,359.27 L 233.71,359.00 L 234.64,359.00 L 236.31,359.33 L 237.10,359.55 L 238.51,360.33 L 239.18,360.77 L 240.32,362.01 L 240.86,362.68 L 241.76,364.38 L 242.18,365.29 L 242.82,367.47 L 243.12,368.62 L 243.52,371.28 L 243.69,372.67 L 243.86,375.83 L 243.84,381.14 L 243.79,382.71 L 243.59,385.56 L 243.46,386.93 L 243.11,389.43 L 242.91,390.63 L 242.39,392.81 L 242.11,393.86 L 241.42,395.75 L 241.05,396.66 L 240.16,398.30 L 239.70,399.09 L 238.61,400.52 L 238.03,401.21 L 236.72,402.45 L 234.50,404.15 L 233.48,404.83 L 231.40,405.95 L 230.37,406.46 L 228.47,407.17 L 227.56,407.47 L 226.11,407.70 L 225.47,407.75 L 224.73,407.40 L 224.65,407.32 L 224.74,406.97 L 224.82,406.76 L 225.19,406.21 L 227.11,404.16 L 227.53,403.78 L 228.30,402.84 L 228.66,402.33 L 229.31,401.14 L 229.62,400.52 L 230.15,399.07 L 230.40,398.31 L 230.83,396.58 L 231.03,395.68 L 231.34,393.65 L 231.49,392.60 L 231.71,390.26 L 231.80,389.05 L 231.92,386.39 L 231.99,382.00 L 231.99,380.27 L 231.83,377.20 L 231.73,375.72 L 231.38,373.17 L 231.18,371.97 L 230.64,369.97 L 230.35,369.04 L 229.65,367.62 L 229.28,366.98 L 228.42,366.15 L 227.97,365.81 L 226.97,365.60 L 226.45,365.58 L 225.32,366.01 L 223.49,367.42 L 222.88,368.03 L 222.08,369.12 L 221.90,369.42 L 221.63,370.16 L 221.51,370.56 L 221.33,371.59 L 221.25,372.15 L 221.15,373.59 L 221.10,374.38 L 221.05,376.36 L 221.03,377.44 L 221.01,380.10 L 221.00,384.98 L 221.00,400.05 L 218.25,401.10 L 217.41,401.42 L 215.43,401.63 L 212.50,401.29 L 209.50,400.43 L 209.00,373.98 L 208.50,347.53 L 206.00,346.35 L 205.66,346.18 L 204.65,345.83 L 204.11,345.66 L 202.84,345.31 L 198.75,344.47 L 194.00,343.77 L 194.00,373.17 L 194.00,376.62 L 194.00,378.29 L 193.99,381.31 L 193.98,382.76 L 193.96,385.36 L 193.95,386.61 L 193.91,388.82 L 193.88,389.89 L 193.82,391.75 L 193.78,392.64 L 193.68,394.19 L 193.62,394.92 L 193.48,396.17 L 193.40,396.76 L 193.21,397.76 L 193.01,398.69 L 192.44,399.90 L 192.13,400.41 L 191.29,400.98 L 190.83,401.20 L 189.67,401.35 L 187.50,401.40 L 186.68,401.40 L 185.34,401.35 L 184.71,401.30 L 183.71,400.98 L 183.25,400.75 L 182.56,399.90 L 182.24,399.39 L 181.79,397.77 L 181.69,397.30 L 181.52,396.19 L 181.45,395.60 L 181.32,394.21 L 181.27,393.48 L 181.18,391.79 L 181.15,390.90 L 181.09,388.88 L 181.07,387.82 L 181.04,385.43 L 181.02,384.18 L 181.01,381.39 L 181.00,379.95 L 181.00,376.73 L 181.00,371.40 L 181.00,344.05 L 177.75,344.65 L 176.56,344.87 L 173.95,345.66 L 172.63,346.10 L 170.04,347.20 L 168.78,347.78 L 166.58,349.03 L 164.10,350.90 L 163.59,351.41 L 162.87,352.50 L 162.56,353.05 L 162.20,354.16 L 162.07,354.71 L 162.05,355.75 L 162.08,356.25 L 162.36,357.14 L 162.53,357.55 L 163.07,358.20 L 163.37,358.48 L 164.14,358.81 L 164.54,358.92 L 165.50,358.84 L 167.12,358.16 L 167.80,357.73 L 168.89,357.26 L 169.39,357.08 L 170.20,357.14 L 170.58,357.24 L 171.23,357.86 L 172.16,359.46 L 172.38,359.95 L 172.61,360.90 L 172.70,361.37 L 172.66,362.28 L 172.56,363.17 L 171.66,364.69 L 171.11,365.39 L 169.43,366.37 L 166.20,367.00 L 165.02,367.00 L 162.96,366.60 L 161.99,366.34 L 160.39,365.44 L 159.65,364.93 L 158.55,363.56 L 157.50,361.00 L 157.32,360.19 L 157.24,358.56 L 157.24,357.74 L 157.51,356.13 L 157.69,355.33 L 158.29,353.77 L 158.64,353.00 L 159.56,351.51 L 160.06,350.77 L 161.29,349.37 L 161.94,348.69 L 163.46,347.40 L 164.25,346.78 L 166.04,345.64 L 169.01,344.11 L 169.73,343.79 L 171.56,343.20 L 172.53,342.90 L 174.77,342.37 L 177.10,341.85 L 182.45,341.06 L 185.16,340.72 L 190.52,340.38 L 191.82,340.33 L 194.23,340.33 L 197.47,340.52 L 198.57,340.63 L 200.47,340.72 L 201.38,340.75 L 202.98,340.65 L 207.22,339.57 L 208.47,339.04 L 210.94,338.40 L 212.15,338.15 L 214.39,338.06 M 428.77,359.09 L 429.53,359.13 L 430.94,359.44 L 431.62,359.62 L 432.83,360.20 L 433.40,360.53 L 434.32,361.39 L 435.30,362.98 L 436.39,365.87 L 439.71,362.95 L 440.49,362.26 L 442.07,361.17 L 442.87,360.67 L 444.45,359.95 L 445.25,359.63 L 446.80,359.27 L 447.58,359.14 L 449.08,359.15 L 449.82,359.19 L 451.23,359.56 L 451.92,359.79 L 453.21,360.51 L 453.83,360.92 L 454.97,362.00 L 456.46,364.03 L 456.90,364.77 L 457.52,366.25 L 457.79,367.04 L 458.14,369.03 L 458.21,369.58 L 458.32,370.88 L 458.36,371.56 L 458.43,373.18 L 458.45,374.03 L 458.48,376.02 L 458.50,379.53 L 458.50,380.89 L 458.49,383.21 L 458.47,384.31 L 458.43,386.16 L 458.40,387.04 L 458.30,388.52 L 458.25,389.22 L 458.09,390.43 L 457.92,391.59 L 457.32,393.50 L 455.95,396.52 L 455.18,398.00 L 453.01,400.85 L 452.44,401.52 L 451.24,402.70 L 449.45,404.15 L 448.41,404.84 L 446.33,405.97 L 445.30,406.49 L 443.41,407.19 L 442.52,407.48 L 441.07,407.68 L 440.42,407.71 L 439.65,407.32 L 439.48,407.14 L 439.82,406.44 L 441.11,405.21 L 441.97,404.61 L 443.34,402.80 L 443.66,402.29 L 444.23,401.08 L 444.50,400.45 L 444.97,398.98 L 445.19,398.21 L 445.58,396.46 L 445.76,395.55 L 446.06,393.50 L 446.20,392.43 L 446.43,390.05 L 446.70,386.10 L 446.78,384.62 L 446.84,381.90 L 446.86,380.58 L 446.81,378.19 L 446.77,377.04 L 446.61,374.97 L 446.51,373.97 L 446.23,372.22 L 446.07,371.39 L 445.67,369.96 L 445.46,369.28 L 444.95,368.16 L 444.67,367.64 L 444.04,366.84 L 442.96,365.98 L 442.56,365.76 L 441.87,365.56 L 441.53,365.49 L 440.88,365.62 L 440.55,365.72 L 439.82,366.22 L 438.49,367.42 L 437.89,368.02 L 437.08,369.11 L 436.91,369.41 L 436.64,370.14 L 436.51,370.53 L 436.34,371.53 L 436.26,372.07 L 436.15,373.47 L 436.10,374.23 L 436.05,376.15 L 436.03,377.18 L 436.01,379.74 L 436.00,384.43 L 436.00,386.24 L 435.99,389.20 L 435.99,390.59 L 435.96,392.82 L 435.94,393.85 L 435.86,395.46 L 435.82,396.20 L 435.68,397.32 L 435.60,397.83 L 435.38,398.57 L 435.25,398.91 L 434.93,399.42 L 433.47,400.61 L 432.98,400.93 L 432.10,401.37 L 431.66,401.55 L 430.79,401.73 L 430.35,401.78 L 429.39,401.71 L 427.72,401.35 L 424.50,400.43 L 424.00,382.96 L 423.93,380.56 L 423.74,376.08 L 423.64,373.93 L 423.40,370.25 L 423.34,369.40 L 423.22,367.92 L 423.15,367.22 L 423.03,366.09 L 422.97,365.57 L 422.84,364.83 L 422.67,364.21 L 422.42,363.83 L 421.46,363.45 L 419.67,363.51 L 419.13,363.66 L 418.47,363.81 L 418.21,363.86 L 418.09,363.76 L 418.10,363.67 L 418.54,363.23 L 419.82,362.08 L 420.45,361.54 L 421.86,360.67 L 422.58,360.27 L 424.11,359.70 L 424.89,359.45 L 426.46,359.18 L 427.24,359.08 M 108.76,394.44 L 109.86,395.09 L 110.34,395.54 L 111.23,396.48 L 111.53,396.99 L 112.00,398.02 L 112.00,398.50 L 111.54,399.92 L 110.86,401.00 L 110.43,401.43 L 109.55,402.23 L 109.13,402.47 L 108.28,402.85 L 107.84,402.89 L 106.93,402.87 L 106.42,402.70 L 105.37,402.28 L 104.75,401.92 L 103.72,401.02 L 103.27,400.27 L 103.15,399.86 L 102.93,398.09 L 103.19,397.22 L 103.51,396.37 L 103.75,395.99 L 104.28,395.26 L 104.62,394.96 L 105.33,394.43 L 105.75,394.26 L 106.63,394.00 L 107.13,394.00 M 625.39,359.07 L 627.25,359.53 L 629.35,360.83 L 629.70,361.22 L 630.20,362.45 L 630.31,362.82 L 630.49,363.79 L 630.57,364.32 L 630.70,365.68 L 630.76,366.41 L 630.85,368.24 L 630.89,369.23 L 630.94,371.62 L 630.96,372.90 L 630.99,375.94 L 631.00,381.35 L 631.00,400.05 L 628.43,401.02 L 627.67,401.31 L 626.45,401.67 L 625.87,401.82 L 624.82,401.88 L 624.30,401.88 L 623.21,401.65 L 622.63,401.50 L 621.25,400.97 L 620.70,400.75 L 619.97,400.14 L 619.81,399.93 L 619.57,399.30 L 619.46,398.94 L 619.29,397.91 L 619.22,397.33 L 619.13,395.76 L 619.08,394.90 L 619.03,392.66 L 619.01,391.45 L 619.00,388.40 L 618.98,382.78 L 618.98,380.41 L 618.91,375.96 L 618.86,373.83 L 618.71,370.17 L 618.67,369.32 L 618.58,367.85 L 618.53,367.15 L 618.43,366.01 L 618.38,365.49 L 618.26,364.74 L 618.09,364.10 L 617.84,363.72 L 616.99,363.30 L 615.60,363.32 L 615.21,363.47 L 614.65,363.61 L 614.41,363.66 L 614.11,363.62 L 613.87,363.55 L 614.08,363.01 L 614.29,362.70 L 615.27,361.88 L 617.40,360.61 L 618.54,360.07 L 620.90,359.41 L 622.08,359.15 L 624.31,359.05 M 566.65,359.31 L 568.66,359.65 L 569.63,359.87 L 571.36,360.57 L 573.53,362.03 L 574.17,362.63 L 575.10,363.76 L 575.51,364.32 L 575.98,365.42 L 576.16,365.97 L 576.14,367.07 L 576.07,367.62 L 575.55,368.76 L 575.23,369.34 L 574.18,370.55 L 573.59,371.17 L 571.99,372.50 L 571.12,373.18 L 568.95,374.66 L 565.03,377.09 L 563.79,377.83 L 561.53,379.28 L 560.45,379.99 L 558.65,381.28 L 557.84,381.89 L 556.71,382.87 L 556.48,383.09 L 556.18,383.44 L 556.00,383.83 L 556.00,384.16 L 556.18,384.96 L 556.30,385.38 L 556.69,386.33 L 557.13,387.30 L 558.44,389.43 L 559.13,390.47 L 560.71,392.35 L 563.00,394.34 L 563.93,394.89 L 565.85,395.56 L 566.82,395.82 L 568.79,395.91 L 569.77,395.88 L 571.76,395.39 L 574.75,394.01 L 575.25,393.71 L 576.06,393.27 L 576.44,393.07 L 577.03,392.84 L 577.29,392.75 L 577.63,392.72 L 577.78,392.73 L 577.88,392.89 L 577.91,393.00 L 577.77,393.34 L 577.68,393.54 L 577.30,394.06 L 577.08,394.35 L 576.46,395.04 L 575.25,396.25 L 574.80,396.68 L 573.67,397.52 L 573.07,397.93 L 571.73,398.69 L 570.35,399.44 L 567.28,400.60 L 565.75,401.11 L 562.88,401.65 L 562.20,401.73 L 561.00,401.75 L 560.43,401.72 L 559.50,401.51 L 559.23,401.42 L 558.01,401.10 L 555.83,400.59 L 554.97,400.40 L 553.30,399.69 L 552.48,399.29 L 550.93,398.20 L 550.17,397.62 L 548.76,396.20 L 548.08,395.46 L 546.86,393.77 L 546.27,392.90 L 545.27,391.00 L 544.81,390.03 L 544.07,387.98 L 543.74,386.94 L 543.31,384.78 L 543.03,381.50 L 543.03,380.14 L 543.59,377.02 L 543.95,375.43 L 545.09,372.22 L 545.70,370.65 L 547.21,367.88 L 547.59,367.24 L 548.40,366.13 L 549.64,364.79 L 550.49,364.04 L 552.41,362.75 L 553.40,362.15 L 555.54,361.17 L 556.62,360.72 L 558.87,360.05 L 560.00,359.75 L 562.27,359.41 L 563.40,359.28 L 565.58,359.27 M 373.26,338.09 L 375.51,338.44 L 376.63,338.66 L 378.86,339.39 L 379.97,339.81 L 382.11,340.91 L 383.17,341.51 L 385.14,342.97 L 387.84,345.55 L 389.30,347.21 L 391.50,350.68 L 392.00,351.58 L 392.83,353.50 L 393.22,354.49 L 393.86,356.62 L 394.16,357.72 L 394.62,360.13 L 394.83,361.38 L 395.12,364.14 L 395.26,365.57 L 395.41,368.73 L 395.50,374.00 L 395.50,375.52 L 395.49,378.04 L 395.48,379.22 L 395.44,381.18 L 395.41,382.10 L 395.31,383.62 L 395.25,384.33 L 395.08,385.54 L 394.88,386.70 L 394.16,388.62 L 393.94,389.11 L 393.40,390.16 L 392.41,391.95 L 391.87,392.90 L 390.64,394.61 L 390.00,395.43 L 388.58,396.87 L 387.86,397.55 L 386.29,398.71 L 385.48,399.25 L 383.78,400.12 L 382.91,400.51 L 381.10,401.07 L 380.18,401.31 L 378.28,401.56 L 377.32,401.65 L 375.35,401.57 L 374.37,401.49 L 372.36,401.08 L 371.30,400.81 L 369.34,400.04 L 368.39,399.61 L 366.67,398.52 L 365.84,397.94 L 364.38,396.55 L 363.68,395.81 L 362.48,394.13 L 361.91,393.26 L 360.97,391.30 L 360.54,390.29 L 359.89,388.08 L 359.59,386.94 L 359.22,384.47 L 359.00,380.50 L 359.00,378.44 L 359.48,374.73 L 359.79,372.95 L 360.90,369.79 L 361.53,368.28 L 363.28,365.66 L 366.61,362.35 L 367.60,361.60 L 370.05,360.45 L 371.32,359.95 L 374.01,359.36 L 375.35,359.14 L 377.87,359.17 L 380.99,359.99 L 381.53,360.29 L 382.25,360.61 L 382.55,360.73 L 382.85,360.63 L 382.95,360.53 L 382.92,359.93 L 382.59,358.36 L 382.28,357.02 L 381.19,354.21 L 380.59,352.81 L 379.10,350.14 L 378.32,348.85 L 376.61,346.65 L 374.04,344.25 L 373.06,343.59 L 371.22,342.72 L 370.31,342.36 L 368.54,342.11 L 367.65,342.05 L 365.81,342.40 L 362.84,343.58 L 362.37,343.83 L 361.61,344.14 L 361.27,344.27 L 360.76,344.36 L 360.54,344.39 L 360.27,344.29 L 360.17,344.22 L 360.15,343.96 L 360.17,343.81 L 360.38,343.40 L 360.52,343.18 L 360.97,342.65 L 363.20,340.70 L 364.03,340.08 L 365.89,339.18 L 366.84,338.78 L 368.91,338.31 L 369.96,338.13 L 372.15,338.07 M 704.77,359.33 L 705.85,359.53 L 707.79,360.26 L 708.71,360.68 L 710.27,361.85 L 712.06,364.10 L 712.33,364.62 L 712.69,365.59 L 712.83,366.06 L 712.90,366.97 L 712.89,367.42 L 712.63,368.31 L 712.45,368.76 L 711.84,369.67 L 711.48,370.14 L 710.47,371.12 L 709.92,371.62 L 708.49,372.71 L 707.73,373.27 L 705.85,374.51 L 702.49,376.58 L 701.19,377.36 L 698.81,378.90 L 697.67,379.65 L 695.79,381.02 L 694.93,381.66 L 693.75,382.70 L 693.51,382.93 L 693.19,383.31 L 693.00,383.72 L 693.00,384.47 L 693.58,386.36 L 693.95,387.33 L 695.09,389.36 L 695.71,390.36 L 697.16,392.15 L 699.42,394.11 L 700.41,394.72 L 702.44,395.46 L 703.46,395.76 L 705.51,395.90 L 706.53,395.90 L 708.54,395.44 L 711.41,394.07 L 712.14,393.59 L 713.15,393.00 L 713.61,392.76 L 714.36,392.69 L 714.74,392.72 L 715.62,393.20 L 717.51,394.57 L 718.47,395.31 L 720.51,396.26 L 721.53,396.65 L 723.52,396.91 L 724.50,396.96 L 726.27,396.51 L 728.46,395.04 L 729.07,394.37 L 729.63,392.87 L 729.80,392.08 L 729.47,390.31 L 729.20,389.38 L 727.97,387.28 L 725.09,383.69 L 724.00,382.50 L 722.12,380.31 L 721.24,379.24 L 719.77,377.28 L 719.09,376.33 L 718.01,374.57 L 717.52,373.71 L 716.83,372.12 L 716.53,371.35 L 716.21,369.91 L 716.09,369.20 L 716.14,367.88 L 716.20,367.23 L 716.59,366.00 L 717.56,364.22 L 718.33,363.12 L 720.41,361.47 L 721.51,360.74 L 724.06,359.79 L 725.36,359.40 L 728.10,359.11 L 729.47,359.04 L 732.14,359.35 L 733.45,359.58 L 735.78,360.45 L 736.88,360.95 L 738.61,362.33 L 738.99,362.71 L 739.60,363.55 L 739.87,363.98 L 740.23,364.93 L 740.38,365.42 L 740.46,366.48 L 740.24,368.18 L 740.08,368.81 L 739.29,369.73 L 738.84,370.14 L 737.69,370.56 L 737.09,370.70 L 735.86,370.56 L 734.21,369.63 L 733.85,369.28 L 733.41,368.73 L 733.23,368.47 L 733.16,368.01 L 733.16,367.78 L 733.46,367.24 L 734.34,366.17 L 734.73,365.75 L 735.22,365.12 L 735.42,364.83 L 735.53,364.38 L 735.54,364.16 L 735.27,363.74 L 734.47,362.97 L 733.89,362.49 L 732.41,362.19 L 731.65,362.14 L 730.11,362.58 L 729.36,362.88 L 728.16,363.90 L 727.16,365.91 L 727.10,366.35 L 727.30,367.33 L 727.47,367.85 L 728.20,369.09 L 728.64,369.75 L 729.98,371.37 L 732.77,374.39 L 733.76,375.41 L 735.45,377.19 L 736.24,378.04 L 737.57,379.53 L 738.19,380.24 L 739.18,381.51 L 739.65,382.12 L 740.37,383.23 L 741.02,384.32 L 741.68,386.35 L 742.00,389.71 L 742.00,391.12 L 741.31,393.64 L 740.86,394.83 L 739.41,396.86 L 738.60,397.81 L 736.56,399.30 L 735.48,399.98 L 733.02,400.89 L 731.75,401.27 L 729.04,401.54 L 727.68,401.60 L 724.90,401.18 L 723.52,400.89 L 720.84,399.73 L 717.13,397.12 L 716.40,396.44 L 715.38,395.56 L 714.93,395.20 L 714.27,394.92 L 713.97,394.85 L 713.42,395.12 L 712.44,396.06 L 712.01,396.55 L 710.90,397.44 L 710.32,397.87 L 708.97,398.65 L 707.58,399.40 L 704.32,400.48 L 702.66,400.94 L 699.23,401.33 L 697.54,401.43 L 694.43,401.01 L 693.35,400.77 L 691.36,400.09 L 690.39,399.72 L 688.63,398.78 L 687.79,398.28 L 686.27,397.09 L 685.55,396.47 L 684.28,395.04 L 683.68,394.29 L 682.67,392.63 L 682.19,391.76 L 681.44,389.86 L 681.09,388.89 L 680.60,386.77 L 680.17,383.34 L 680.04,381.24 L 680.29,377.51 L 680.50,375.72 L 681.47,372.53 L 682.05,370.99 L 683.78,368.24 L 687.26,364.51 L 688.30,363.62 L 690.56,362.17 L 691.71,361.50 L 694.12,360.48 L 695.33,360.02 L 697.78,359.44 L 699.00,359.20 L 701.38,359.06 L 702.56,359.04 M 322.30,341.32 L 322.53,341.35 L 322.83,341.55 L 322.95,341.67 L 323.01,342.04 L 323.01,342.25 L 322.82,342.79 L 322.23,343.80 L 321.63,344.65 L 320.55,346.52 L 320.04,347.47 L 319.15,349.55 L 318.73,350.62 L 318.01,352.90 L 317.68,354.08 L 317.14,356.58 L 316.90,357.86 L 316.54,360.57 L 316.38,361.96 L 316.20,364.89 L 316.14,366.39 L 316.13,369.53 L 316.33,374.50 L 316.43,375.97 L 316.65,378.57 L 316.77,379.83 L 317.05,382.04 L 317.20,383.11 L 317.56,384.99 L 317.75,385.90 L 318.20,387.50 L 318.68,389.05 L 319.99,391.54 L 322.63,394.83 L 323.39,395.59 L 324.56,396.62 L 325.11,397.07 L 326.10,397.58 L 326.60,397.77 L 327.70,397.86 L 329.78,397.66 L 330.63,397.52 L 332.17,397.00 L 332.91,396.69 L 334.23,395.81 L 334.87,395.33 L 335.98,394.06 L 336.51,393.38 L 337.43,391.71 L 337.87,390.82 L 338.61,388.71 L 338.95,387.60 L 339.53,385.02 L 339.79,383.68 L 340.21,380.61 L 340.68,375.44 L 340.80,373.56 L 340.85,369.90 L 340.84,368.10 L 340.63,364.65 L 340.50,362.96 L 340.06,359.79 L 339.82,358.25 L 339.17,355.45 L 338.82,354.10 L 337.99,351.73 L 337.54,350.61 L 336.53,348.76 L 336.01,347.90 L 334.85,346.64 L 332.95,345.48 L 332.22,345.25 L 330.84,345.18 L 330.17,345.20 L 328.94,345.62 L 328.35,345.88 L 327.35,346.76 L 326.15,348.57 L 325.66,349.64 L 325.16,351.54 L 324.99,352.45 L 325.13,354.07 L 325.28,354.85 L 326.07,356.25 L 328.00,358.16 L 328.86,358.79 L 330.00,359.93 L 330.48,360.48 L 330.86,361.46 L 330.95,361.93 L 330.57,362.78 L 329.15,363.92 L 328.57,364.23 L 327.41,364.36 L 326.84,364.35 L 325.76,363.91 L 325.23,363.62 L 324.27,362.69 L 323.81,362.18 L 323.02,360.87 L 322.65,360.17 L 322.08,358.57 L 321.83,357.74 L 321.54,355.94 L 321.43,355.02 L 321.46,353.12 L 321.93,350.26 L 322.16,349.39 L 322.81,347.85 L 323.16,347.11 L 324.01,345.83 L 324.46,345.22 L 325.50,344.20 L 326.04,343.72 L 327.23,342.94 L 327.84,342.59 L 329.16,342.07 L 329.84,341.84 L 331.26,341.56 L 332.70,341.34 L 335.77,341.61 L 337.31,341.87 L 340.43,343.06 L 341.98,343.77 L 344.93,345.84 L 346.36,346.99 L 348.93,349.91 L 352.10,355.21 L 352.53,356.15 L 353.22,358.38 L 353.54,359.54 L 354.03,362.10 L 354.46,364.72 L 354.68,370.44 L 354.69,371.87 L 354.54,374.70 L 354.43,376.10 L 354.07,378.77 L 353.86,380.07 L 353.29,382.47 L 352.18,385.61 L 351.50,387.12 L 349.81,389.86 L 348.92,391.19 L 346.85,393.53 L 345.78,394.65 L 343.40,396.57 L 342.18,397.47 L 339.54,398.93 L 338.20,399.60 L 335.38,400.57 L 333.95,400.99 L 331.00,401.44 L 329.51,401.59 L 326.49,401.49 L 324.98,401.36 L 321.95,400.68 L 320.70,400.33 L 318.41,399.48 L 317.29,399.03 L 315.25,397.97 L 314.26,397.41 L 312.45,396.12 L 311.58,395.44 L 310.01,393.92 L 309.26,393.12 L 307.91,391.35 L 307.27,390.43 L 306.13,388.40 L 305.59,387.35 L 304.66,385.05 L 303.49,381.29 L 302.98,379.35 L 302.42,375.46 L 302.21,373.53 L 302.23,369.71 L 302.31,367.81 L 302.88,364.13 L 303.22,362.32 L 304.31,358.86 L 304.92,357.17 L 306.50,354.01 L 307.35,352.47 L 309.40,349.68 L 310.48,348.35 L 312.97,346.01 L 317.17,343.10 L 318.37,342.43 L 320.28,341.66 L 320.71,341.51 L 321.44,341.35 L 321.78,341.30 M 273.83,359.40 L 275.22,359.70 L 277.54,360.86 L 278.07,361.20 L 278.98,362.02 L 279.40,362.46 L 280.07,363.48 L 280.37,364.01 L 280.76,365.23 L 281.00,367.28 L 281.00,368.04 L 280.60,369.33 L 280.45,369.66 L 279.99,370.31 L 279.72,370.64 L 278.98,371.34 L 278.58,371.70 L 277.52,372.51 L 276.94,372.93 L 275.50,373.88 L 274.73,374.38 L 272.85,375.53 L 269.50,377.52 L 268.40,378.17 L 266.38,379.36 L 265.41,379.94 L 263.78,380.90 L 263.04,381.34 L 261.99,381.97 L 261.28,382.42 L 261.25,382.44 L 261.27,382.78 L 261.29,382.99 L 261.41,383.62 L 262.05,386.22 L 262.38,387.43 L 263.78,389.79 L 264.56,390.93 L 266.59,392.92 L 267.65,393.84 L 269.94,395.15 L 270.51,395.42 L 271.65,395.78 L 273.28,396.00 L 273.73,396.00 L 274.79,395.84 L 275.34,395.74 L 276.51,395.41 L 279.75,394.01 L 280.22,393.73 L 281.00,393.32 L 281.37,393.14 L 281.95,392.93 L 282.21,392.85 L 282.58,392.83 L 282.74,392.84 L 282.89,393.00 L 282.94,393.10 L 282.88,393.43 L 282.81,393.61 L 282.52,394.09 L 282.34,394.34 L 281.81,394.97 L 280.75,396.05 L 279.59,397.14 L 276.79,398.88 L 275.34,399.67 L 272.17,400.74 L 270.56,401.18 L 267.27,401.50 L 265.63,401.56 L 262.50,401.06 L 260.75,400.64 L 257.70,399.22 L 256.26,398.42 L 253.84,396.22 L 252.71,395.03 L 250.92,392.06 L 248.96,386.76 L 248.57,385.20 L 248.27,382.10 L 248.20,380.55 L 248.54,377.51 L 248.79,375.99 L 249.76,373.05 L 251.93,368.78 L 252.89,367.26 L 255.38,364.75 L 256.70,363.58 L 259.71,361.78 L 261.26,360.96 L 264.51,359.88 L 266.13,359.43 L 269.35,359.08 L 270.92,359.00 M 409.17,359.13 L 410.89,359.64 L 413.00,361.00 L 413.46,361.46 L 414.09,362.56 L 414.23,362.89 L 414.45,363.74 L 414.55,364.21 L 414.69,365.43 L 414.76,366.10 L 414.86,367.81 L 414.90,368.73 L 414.95,371.05 L 414.97,372.30 L 414.99,375.35 L 415.00,380.88 L 415.00,382.52 L 414.98,385.43 L 414.97,386.82 L 414.93,389.26 L 414.91,390.43 L 414.85,392.43 L 414.81,393.38 L 414.72,394.97 L 414.67,395.72 L 414.55,396.94 L 414.48,397.50 L 414.33,398.36 L 414.25,398.76 L 414.06,399.30 L 413.74,399.80 L 413.19,400.26 L 411.81,400.90 L 411.08,401.18 L 409.51,401.45 L 408.71,401.53 L 407.14,401.40 L 406.37,401.28 L 405.00,400.73 L 404.38,400.41 L 403.55,399.70 L 403.37,399.47 L 403.09,398.80 L 402.95,398.42 L 402.75,397.35 L 402.66,396.74 L 402.51,395.11 L 402.44,394.21 L 402.33,391.87 L 402.27,390.60 L 402.17,387.40 L 402.14,386.54 L 402.09,384.63 L 402.00,381.47 L 401.50,363.50 L 399.19,363.75 L 398.79,363.79 L 398.21,363.77 L 397.95,363.75 L 397.63,363.62 L 397.38,363.45 L 397.62,362.86 L 397.86,362.53 L 399.00,361.71 L 401.59,360.40 L 402.77,359.90 L 405.03,359.33 L 406.14,359.11 L 408.19,359.08 M 602.54,359.07 L 604.83,359.56 L 605.93,359.86 L 607.89,360.77 L 608.81,361.28 L 610.30,362.55 L 610.97,363.22 L 611.86,364.77 L 612.21,365.57 L 612.37,367.33 L 611.63,370.13 L 611.31,370.77 L 610.52,371.70 L 610.11,372.11 L 609.20,372.60 L 608.74,372.79 L 607.77,372.87 L 607.29,372.86 L 606.35,372.55 L 605.90,372.36 L 605.06,371.70 L 604.65,371.34 L 603.99,370.37 L 603.68,369.85 L 603.27,368.59 L 603.00,366.43 L 603.00,365.69 L 602.92,364.65 L 602.85,364.19 L 602.57,363.61 L 602.40,363.36 L 601.84,363.12 L 600.59,363.00 L 599.90,363.00 L 598.59,363.43 L 597.95,363.72 L 596.77,364.66 L 596.20,365.19 L 595.19,366.56 L 594.70,367.30 L 593.89,369.03 L 593.51,369.93 L 592.92,371.94 L 592.66,372.97 L 592.33,375.17 L 592.21,376.29 L 592.18,378.62 L 592.50,382.17 L 592.75,383.67 L 593.50,386.34 L 593.92,387.62 L 594.99,389.82 L 595.56,390.85 L 596.90,392.56 L 597.61,393.35 L 599.19,394.53 L 600.01,395.05 L 601.79,395.69 L 602.70,395.94 L 604.64,396.01 L 605.63,395.97 L 607.68,395.44 L 610.86,393.94 L 611.85,393.34 L 613.31,392.68 L 613.63,392.56 L 614.12,392.46 L 614.34,392.43 L 614.64,392.49 L 614.76,392.55 L 614.84,392.78 L 614.85,392.92 L 614.71,393.32 L 614.61,393.54 L 614.24,394.09 L 613.41,395.10 L 612.89,395.67 L 611.66,396.72 L 611.01,397.23 L 609.56,398.15 L 608.07,399.02 L 604.66,400.28 L 602.93,400.82 L 599.37,401.30 L 598.50,401.36 L 596.79,401.32 L 595.95,401.27 L 594.36,400.99 L 593.22,400.74 L 591.11,399.99 L 590.09,399.57 L 588.24,398.50 L 587.34,397.93 L 585.75,396.56 L 584.99,395.84 L 583.67,394.20 L 583.05,393.34 L 582.02,391.44 L 581.55,390.46 L 580.83,388.32 L 580.50,387.22 L 580.10,384.85 L 579.87,381.08 L 579.87,379.90 L 580.12,377.63 L 580.28,376.51 L 580.83,374.37 L 581.14,373.32 L 581.98,371.33 L 582.43,370.36 L 583.55,368.54 L 584.14,367.65 L 585.52,366.02 L 586.25,365.23 L 587.89,363.80 L 588.74,363.11 L 590.63,361.90 L 593.72,360.35 L 594.98,359.82 L 597.54,359.24 L 598.82,359.02 L 601.31,359.01 M 376.84,363.75 L 376.31,363.87 L 375.31,364.44 L 374.82,364.78 L 373.94,365.79 L 372.84,367.81 L 372.63,368.34 L 372.30,369.95 L 372.15,370.83 L 371.94,372.97 L 371.85,374.09 L 371.76,376.58 L 371.72,377.85 L 371.75,380.49 L 371.77,381.81 L 371.90,384.40 L 371.98,385.67 L 372.22,388.03 L 372.35,389.15 L 372.69,391.07 L 373.31,393.25 L 373.57,393.87 L 374.17,394.89 L 374.48,395.36 L 375.15,396.08 L 375.49,396.41 L 376.21,396.84 L 376.58,397.02 L 377.32,397.15 L 377.70,397.18 L 378.45,397.02 L 378.82,396.90 L 379.55,396.44 L 379.91,396.17 L 380.60,395.40 L 380.93,394.98 L 381.54,393.91 L 381.78,393.45 L 382.22,392.03 L 382.43,391.26 L 382.80,389.33 L 382.98,388.32 L 383.27,386.06 L 383.40,384.89 L 383.61,382.45 L 383.78,379.98 L 383.81,375.19 L 383.79,374.06 L 383.65,372.03 L 383.29,369.51 L 383.10,368.64 L 382.51,367.18 L 382.18,366.50 L 381.36,365.42 L 380.94,364.94 L 379.97,364.25 L 379.48,363.96 L 378.43,363.69 L 377.90,363.60 M 656.80,364.13 L 655.72,364.63 L 654.00,366.00 L 653.55,366.45 L 652.93,367.45 L 652.66,368.02 L 652.33,369.73 L 652.26,370.23 L 652.16,371.48 L 652.12,372.14 L 652.06,373.77 L 652.04,374.65 L 652.01,376.74 L 652.00,380.50 L 652.00,381.90 L 652.01,384.26 L 652.02,385.37 L 652.06,387.23 L 652.09,388.10 L 652.16,389.52 L 652.21,390.19 L 652.33,391.27 L 652.47,392.27 L 652.93,393.55 L 654.00,395.00 L 654.62,395.62 L 655.73,396.40 L 656.27,396.72 L 657.29,396.90 L 657.79,396.92 L 658.76,396.52 L 659.25,396.24 L 660.25,395.25 L 660.85,394.57 L 661.85,392.60 L 662.30,391.54 L 663.00,388.98 L 663.31,387.64 L 663.70,384.71 L 663.86,383.22 L 663.95,380.15 L 663.96,378.61 L 663.74,375.61 L 663.60,374.14 L 663.08,371.44 L 662.79,370.15 L 661.97,367.97 L 660.39,365.53 L 659.87,365.02 L 658.86,364.40 L 658.35,364.16 L 657.32,364.09 M 697.93,363.19 L 696.81,363.67 L 696.26,363.98 L 695.28,364.93 L 694.18,366.78 L 694.04,367.16 L 693.73,368.22 L 693.57,368.79 L 693.26,370.13 L 692.50,374.35 L 691.85,379.21 L 696.95,376.43 L 697.69,376.03 L 699.03,375.16 L 699.68,374.72 L 700.76,373.84 L 701.26,373.41 L 701.99,372.60 L 702.30,372.20 L 702.58,371.54 L 702.73,370.95 L 702.67,369.44 L 702.59,368.66 L 702.16,367.04 L 701.91,366.25 L 701.23,364.88 L 700.05,363.53 L 699.58,363.24 L 698.49,363.16 M 560.31,363.60 L 559.62,364.02 L 558.47,365.23 L 557.94,365.90 L 557.13,367.59 L 556.77,368.48 L 556.30,370.60 L 556.01,374.22 L 556.00,378.94 L 560.75,376.16 L 561.70,375.60 L 563.10,374.65 L 563.73,374.19 L 564.60,373.33 L 564.98,372.89 L 565.44,371.97 L 565.63,371.49 L 565.80,370.36 L 565.90,369.32 L 565.48,367.33 L 565.18,366.38 L 564.17,364.84 L 563.61,364.16 L 562.30,363.42 L 561.97,363.30 L 561.30,363.28 M 266.16,363.00 L 265.58,363.21 L 265.30,363.34 L 264.74,363.80 L 264.20,364.32 L 263.22,366.02 L 262.76,366.96 L 262.02,369.37 L 261.28,373.58 L 261.16,374.77 L 261.04,376.45 L 261.00,377.18 L 261.07,378.07 L 261.12,378.43 L 261.41,378.67 L 262.09,378.48 L 262.29,378.36 L 262.94,377.97 L 263.29,377.75 L 264.19,377.20 L 265.12,376.63 L 267.25,375.31 L 268.04,374.82 L 269.16,373.99 L 269.66,373.58 L 270.30,372.77 L 270.58,372.36 L 270.86,371.39 L 271.00,369.56 L 271.00,368.68 L 270.63,367.04 L 270.40,366.26 L 269.64,364.95 L 269.23,364.36 L 268.20,363.53 L 266.45,363.00 M 625.32,344.18 L 625.99,344.24 L 627.21,344.65 L 627.80,344.90 L 628.79,345.62 L 629.25,346.02 L 629.94,346.99 L 630.24,347.50 L 630.54,348.65 L 630.63,349.25 L 630.47,350.51 L 629.62,352.46 L 629.15,353.18 L 627.69,354.18 L 626.91,354.61 L 625.06,355.00 L 624.12,355.12 L 622.21,354.86 L 621.27,354.65 L 619.61,353.70 L 618.96,353.23 L 618.28,351.81 L 618.05,351.06 L 618.15,349.38 L 618.30,348.54 L 619.11,346.96 L 621.07,345.13 L 621.79,344.73 L 623.23,344.30 L 623.95,344.15 M 409.46,344.41 L 410.08,344.59 L 411.18,345.20 L 411.70,345.54 L 412.54,346.42 L 412.93,346.88 L 413.45,347.93 L 413.66,348.47 L 413.80,349.63 L 413.81,350.21 L 413.49,351.38 L 412.43,353.08 L 411.84,353.72 L 410.22,354.52 L 409.37,354.83 L 407.47,354.97 L 406.52,354.96 L 404.70,354.45 L 403.84,354.12 L 402.47,352.97 L 401.85,352.29 L 401.33,350.69 L 401.18,349.88 L 401.52,348.24 L 401.79,347.45 L 402.91,346.06 L 405.34,344.55 L 406.07,344.29 L 407.48,344.15 L 408.17,344.13 M 90.05,227.11 L 93.71,227.44 L 95.52,227.66 L 99.08,228.39 L 104.19,229.94 L 105.48,230.43 L 107.99,231.74 L 109.23,232.45 L 111.62,234.15 L 112.80,235.04 L 115.01,237.07 L 116.09,238.11 L 118.08,240.41 L 119.04,241.58 L 120.75,244.08 L 121.57,245.34 L 122.95,247.98 L 123.59,249.31 L 124.59,252.02 L 125.61,256.12 L 126.21,259.73 L 132.63,260.33 L 134.71,260.52 L 138.50,261.25 L 140.33,261.67 L 143.61,262.83 L 145.19,263.47 L 147.96,265.08 L 149.28,265.94 L 151.53,267.97 L 152.59,269.05 L 154.33,271.52 L 155.13,272.80 L 156.34,275.69 L 156.88,277.19 L 157.56,280.50 L 157.98,285.93 L 157.98,287.87 L 157.59,291.42 L 157.33,293.14 L 156.41,296.23 L 155.88,297.72 L 154.45,300.36 L 153.67,301.62 L 151.73,303.78 L 150.70,304.80 L 148.27,306.47 L 147.00,307.25 L 144.10,308.42 L 142.59,308.94 L 139.23,309.60 L 133.67,310.00 L 128.08,310.00 L 127.04,313.85 L 126.90,314.38 L 126.58,315.74 L 126.42,316.44 L 126.10,318.01 L 125.30,322.60 L 125.21,323.17 L 125.07,324.11 L 125.01,324.54 L 124.89,325.22 L 124.78,325.82 L 124.59,326.31 L 124.50,326.43 L 124.30,326.02 L 123.91,324.50 L 123.82,324.09 L 123.64,322.81 L 123.55,322.12 L 123.40,320.43 L 123.12,314.87 L 123.00,308.24 L 119.25,309.57 L 118.22,309.94 L 115.72,310.53 L 115.11,310.65 L 113.96,310.82 L 112.50,310.93 L 111.76,310.94 L 110.85,310.91 L 110.50,310.89 L 110.41,310.72 L 110.48,310.60 L 111.27,310.18 L 113.50,309.14 L 114.13,308.85 L 115.54,307.96 L 116.27,307.47 L 117.82,306.23 L 119.39,304.93 L 122.53,301.74 L 123.29,300.93 L 124.67,299.29 L 125.34,298.48 L 126.48,296.92 L 127.01,296.15 L 127.80,294.77 L 128.50,293.01 L 128.68,292.18 L 129.24,290.88 L 129.38,290.61 L 129.67,290.24 L 130.08,290.00 L 130.26,290.00 L 130.54,290.30 L 130.66,290.49 L 130.83,291.11 L 130.97,291.80 L 130.95,293.84 L 130.89,294.93 L 130.49,297.32 L 129.49,300.67 L 127.99,304.28 L 133.74,303.60 L 135.49,303.40 L 138.60,302.70 L 140.09,302.31 L 142.67,301.25 L 143.90,300.67 L 145.96,299.23 L 148.44,296.68 L 148.85,296.11 L 149.46,294.94 L 149.73,294.33 L 150.09,292.88 L 150.25,292.09 L 150.41,290.07 L 150.50,286.10 L 150.50,285.23 L 150.48,283.75 L 150.47,283.05 L 150.42,281.85 L 150.35,280.71 L 150.04,279.02 L 149.85,278.23 L 149.20,276.88 L 147.71,274.69 L 147.26,274.09 L 146.05,272.97 L 145.41,272.42 L 143.87,271.41 L 143.07,270.92 L 141.26,270.04 L 140.33,269.62 L 138.31,268.90 L 136.25,268.23 L 131.76,267.42 L 124.94,267.20 L 119.00,267.63 L 119.00,263.35 L 119.00,261.94 L 118.61,259.11 L 118.36,257.69 L 117.50,254.89 L 117.02,253.50 L 115.74,250.82 L 115.06,249.50 L 113.42,247.00 L 112.56,245.79 L 110.61,243.55 L 109.60,242.48 L 107.39,240.58 L 106.25,239.68 L 103.84,238.19 L 100.04,236.51 L 99.10,236.20 L 96.90,235.73 L 95.76,235.52 L 93.23,235.24 L 90.65,235.00 L 85.08,235.08 L 83.70,235.14 L 81.01,235.40 L 79.69,235.55 L 77.22,235.96 L 76.02,236.19 L 73.91,236.77 L 71.28,237.82 L 69.78,238.59 L 66.97,240.58 L 65.60,241.63 L 63.10,244.09 L 61.90,245.38 L 59.81,248.23 L 57.21,252.86 L 56.36,254.70 L 55.28,258.80 L 54.84,260.90 L 54.55,265.23 L 54.51,267.39 L 55.04,271.57 L 55.22,272.58 L 55.74,274.53 L 56.75,277.25 L 57.04,277.90 L 57.55,279.09 L 57.78,279.66 L 58.13,280.60 L 58.29,281.04 L 58.46,281.63 L 58.46,282.00 L 58.31,282.00 L 57.86,281.62 L 57.61,281.37 L 57.01,280.58 L 56.70,280.14 L 56.00,279.03 L 55.64,278.45 L 54.91,277.14 L 54.17,275.80 L 52.83,272.93 L 52.52,272.24 L 52.01,270.93 L 51.45,269.20 L 51.16,268.07 L 50.69,266.57 L 50.46,265.92 L 49.93,265.20 L 49.64,264.91 L 48.79,264.72 L 46.90,264.78 L 45.54,264.90 L 42.72,265.81 L 41.33,266.36 L 38.68,267.97 L 37.41,268.84 L 35.25,270.92 L 32.93,274.35 L 32.24,275.87 L 31.42,278.83 L 31.09,280.29 L 30.98,283.08 L 31.01,284.45 L 31.58,287.02 L 31.94,288.27 L 33.15,290.55 L 33.82,291.65 L 35.63,293.58 L 36.60,294.50 L 38.97,296.03 L 40.22,296.73 L 43.12,297.79 L 48.02,298.80 L 48.80,298.88 L 50.08,299.04 L 50.68,299.11 L 51.65,299.27 L 52.56,299.43 L 53.68,299.92 L 54.16,300.22 L 54.79,301.19 L 55.69,303.50 L 55.88,304.05 L 56.27,305.63 L 56.47,306.47 L 56.84,308.46 L 57.68,314.77 L 57.75,315.53 L 57.87,316.81 L 57.93,317.42 L 58.06,318.44 L 58.18,319.39 L 58.48,320.58 L 58.64,321.07 L 59.06,321.51 L 59.90,321.54 L 60.98,321.20 L 63.64,320.60 L 65.03,320.32 L 68.16,319.86 L 69.77,319.64 L 73.22,319.31 L 74.96,319.17 L 78.54,318.98 L 80.33,318.90 L 83.87,318.86 L 85.62,318.86 L 88.95,318.98 L 90.57,319.06 L 93.52,319.34 L 97.32,319.96 L 98.03,320.12 L 99.64,320.60 L 100.46,320.86 L 102.22,321.50 L 103.99,322.18 L 107.57,323.83 L 109.30,324.67 L 112.23,326.38 L 112.89,326.80 L 113.95,327.57 L 115.06,328.61 L 115.39,329.01 L 115.78,329.54 L 115.93,329.76 L 115.95,329.97 L 115.91,330.04 L 115.53,329.97 L 114.50,329.62 L 112.66,328.92 L 108.47,327.79 L 106.31,327.27 L 101.61,326.49 L 99.22,326.14 L 94.18,325.70 L 91.64,325.53 L 86.46,325.44 L 83.86,325.44 L 78.70,325.70 L 76.13,325.88 L 71.17,326.49 L 68.73,326.83 L 64.14,327.79 L 57.88,329.61 L 56.97,329.94 L 55.26,330.54 L 54.43,330.83 L 53.01,331.30 L 52.35,331.52 L 51.38,331.81 L 50.61,332.00 L 50.52,332.00 L 50.40,331.38 L 50.36,330.98 L 50.34,329.69 L 50.34,328.97 L 50.41,327.19 L 50.45,326.24 L 50.61,324.13 L 50.79,321.91 L 50.87,317.71 L 50.86,315.68 L 50.58,312.20 L 50.50,311.39 L 50.26,309.99 L 50.14,309.33 L 49.83,308.26 L 49.67,307.78 L 49.30,307.10 L 48.68,306.57 L 47.04,306.13 L 44.06,305.23 L 42.63,304.77 L 40.04,303.81 L 38.80,303.32 L 36.58,302.28 L 35.52,301.76 L 33.64,300.63 L 32.74,300.06 L 31.18,298.83 L 30.44,298.20 L 29.17,296.85 L 28.57,296.16 L 27.57,294.68 L 26.35,292.28 L 26.09,291.66 L 25.68,290.14 L 25.50,289.34 L 25.24,287.53 L 25.01,285.67 L 24.99,281.55 L 25.05,279.50 L 25.58,275.64 L 25.74,274.73 L 26.17,273.11 L 26.96,271.09 L 27.80,269.42 L 30.17,266.47 L 31.45,265.07 L 34.59,262.69 L 36.25,261.59 L 40.03,259.88 L 46.29,258.16 L 47.25,258.00 L 48.56,257.67 L 49.13,257.47 L 49.91,256.84 L 50.25,256.45 L 50.78,255.19 L 50.91,254.81 L 51.18,253.90 L 51.62,252.22 L 51.90,251.13 L 52.49,249.17 L 52.78,248.22 L 53.44,246.50 L 54.12,244.82 L 55.84,241.96 L 56.79,240.57 L 59.27,237.94 L 59.95,237.28 L 61.51,235.93 L 64.17,233.80 L 65.34,232.91 L 68.04,231.38 L 69.44,230.66 L 72.53,229.48 L 74.11,228.94 L 77.48,228.13 L 79.20,227.77 L 82.76,227.33 L 84.56,227.15 L 88.22,227.09 Z" fill="rgba(65,40,0,1)"/>
<path d="M 466.73,453.11 L 467.05,453.19 L 467.49,453.49 L 467.68,453.68 L 467.89,454.23 L 468.00,455.42 L 468.00,456.30 L 467.82,457.77 L 467.70,458.46 L 467.28,459.53 L 467.05,460.01 L 466.43,460.62 L 465.29,461.00 L 464.85,461.00 L 464.36,460.61 L 464.19,460.36 L 464.32,459.60 L 464.47,459.21 L 464.52,458.42 L 464.24,457.57 L 464.07,457.40 L 463.71,456.55 L 463.31,454.97 L 463.26,454.59 L 463.29,454.03 L 463.33,453.77 L 463.60,453.42 L 463.77,453.27 L 464.32,453.09 L 465.51,453.00 L 466.00,453.00 M 360.51,432.38 L 362.56,433.42 L 362.90,433.67 L 363.49,434.79 L 363.76,435.43 L 364.22,437.19 L 364.42,438.12 L 364.73,440.30 L 364.86,441.42 L 365.02,443.81 L 365.07,445.01 L 365.06,447.40 L 365.03,448.58 L 364.84,450.76 L 364.73,451.81 L 364.35,453.57 L 363.58,455.52 L 363.13,456.20 L 361.67,457.18 L 360.87,457.60 L 359.04,458.01 L 358.11,458.13 L 356.34,457.91 L 355.49,457.71 L 354.20,456.80 L 353.96,456.56 L 353.58,455.33 L 353.41,454.61 L 353.17,452.64 L 353.06,451.58 L 352.95,449.13 L 352.91,447.87 L 352.92,445.21 L 352.94,443.88 L 353.07,441.29 L 353.15,440.02 L 353.40,437.77 L 353.54,436.71 L 353.91,435.06 L 354.57,433.57 L 355.06,433.08 L 356.28,432.46 L 356.93,432.21 L 358.34,432.06 L 359.06,432.05 M 342.60,432.78 L 342.74,432.89 L 342.97,433.27 L 343.07,433.49 L 343.24,434.13 L 343.32,434.49 L 343.44,435.46 L 343.49,435.99 L 343.58,437.36 L 343.62,438.09 L 343.69,439.92 L 343.78,443.25 L 343.82,444.51 L 343.88,446.60 L 343.91,447.58 L 343.99,449.17 L 344.03,449.91 L 344.13,451.07 L 344.19,451.60 L 344.33,452.40 L 344.41,452.75 L 344.60,453.25 L 344.71,453.47 L 344.98,453.73 L 346.11,454.00 L 346.81,454.00 L 347.57,454.42 L 347.81,455.75 L 347.75,456.07 L 347.43,456.58 L 347.23,456.81 L 346.59,457.17 L 346.23,457.34 L 345.21,457.57 L 343.21,457.81 L 338.94,458.12 L 339.22,445.31 L 339.25,443.80 L 339.32,441.30 L 339.35,440.13 L 339.42,438.22 L 339.46,437.34 L 339.56,435.96 L 339.61,435.33 L 339.75,434.39 L 339.83,433.96 L 340.02,433.38 L 340.13,433.12 L 340.39,432.81 L 341.50,432.50 L 341.96,432.50 M 414.60,432.78 L 414.74,432.89 L 414.97,433.27 L 415.07,433.49 L 415.24,434.13 L 415.32,434.49 L 415.44,435.46 L 415.49,435.99 L 415.58,437.36 L 415.62,438.09 L 415.69,439.92 L 415.78,443.25 L 415.82,444.51 L 415.88,446.60 L 415.91,447.58 L 415.99,449.17 L 416.03,449.91 L 416.13,451.07 L 416.19,451.60 L 416.33,452.40 L 416.41,452.75 L 416.60,453.25 L 416.71,453.47 L 416.98,453.73 L 418.11,454.00 L 418.81,454.00 L 419.57,454.42 L 419.81,455.75 L 419.75,456.07 L 419.43,456.58 L 419.23,456.81 L 418.59,457.17 L 418.23,457.34 L 417.21,457.57 L 415.21,457.81 L 410.94,458.12 L 411.22,445.31 L 411.25,443.80 L 411.32,441.30 L 411.35,440.13 L 411.42,438.22 L 411.46,437.34 L 411.56,435.96 L 411.61,435.33 L 411.75,434.39 L 411.83,433.96 L 412.02,433.38 L 412.13,433.12 L 412.39,432.81 L 413.50,432.50 L 413.96,432.50 M 567.38,432.08 L 568.72,432.46 L 570.43,433.57 L 570.68,433.82 L 571.09,435.06 L 571.29,435.78 L 571.60,437.77 L 571.73,438.83 L 571.93,441.29 L 572.01,442.55 L 572.08,445.21 L 572.10,446.54 L 572.05,449.13 L 572.01,450.39 L 571.83,452.64 L 571.73,453.69 L 571.42,455.33 L 570.80,456.80 L 570.25,457.35 L 568.66,457.91 L 567.82,458.10 L 565.96,458.01 L 565.04,457.88 L 563.33,457.18 L 562.54,456.76 L 561.42,455.52 L 561.11,455.05 L 560.65,453.57 L 560.44,452.76 L 560.16,450.76 L 560.04,449.72 L 559.94,447.40 L 559.91,446.23 L 559.98,443.81 L 560.04,442.61 L 560.27,440.30 L 560.40,439.18 L 560.78,437.19 L 560.99,436.25 L 561.51,434.79 L 562.44,433.42 L 563.08,432.95 L 564.49,432.38 L 565.21,432.15 L 566.66,432.06 M 585.34,432.10 L 586.64,432.55 L 588.35,433.83 L 588.67,434.18 L 589.15,435.15 L 589.36,435.69 L 589.66,437.20 L 589.78,438.04 L 589.92,440.33 L 589.95,440.96 L 589.98,442.41 L 590.00,444.89 L 590.00,446.16 L 589.92,448.63 L 589.87,449.84 L 589.70,451.99 L 589.60,453.00 L 589.37,454.59 L 588.96,456.07 L 588.80,456.37 L 588.28,456.87 L 588.00,457.10 L 587.27,457.46 L 586.51,457.78 L 584.64,458.00 L 583.69,458.04 L 581.82,457.67 L 580.93,457.41 L 579.57,456.43 L 579.27,456.12 L 578.81,455.20 L 578.61,454.67 L 578.33,453.12 L 578.21,452.24 L 578.07,449.83 L 578.05,449.16 L 578.02,447.62 L 578.00,444.99 L 578.00,443.85 L 578.01,441.95 L 578.02,441.05 L 578.06,439.58 L 578.08,438.88 L 578.16,437.76 L 578.21,437.24 L 578.35,436.41 L 578.50,435.63 L 579.01,434.67 L 580.22,433.56 L 580.96,433.04 L 582.45,432.41 L 583.20,432.16 L 584.63,432.08 M 204.22,432.51 L 205.00,432.84 L 206.24,433.94 L 206.80,434.56 L 207.54,436.17 L 208.00,439.06 L 208.00,439.94 L 207.92,441.17 L 207.87,441.70 L 207.59,442.36 L 207.42,442.63 L 206.84,442.88 L 205.50,443.00 L 204.95,443.00 L 204.19,442.88 L 203.85,442.80 L 203.43,442.40 L 203.25,442.15 L 203.08,441.34 L 203.00,439.50 L 203.00,438.54 L 202.71,437.03 L 202.62,436.71 L 202.39,436.28 L 202.00,436.00 L 201.85,436.00 L 201.59,436.66 L 201.47,437.08 L 201.28,438.50 L 201.19,439.29 L 201.07,441.34 L 201.00,445.00 L 201.00,446.33 L 201.07,448.66 L 201.12,449.75 L 201.28,451.50 L 201.37,452.29 L 201.59,453.34 L 202.00,454.00 L 202.14,454.00 L 202.39,453.72 L 202.51,453.55 L 202.71,452.97 L 203.00,450.50 L 203.00,449.73 L 203.08,448.66 L 203.15,448.19 L 203.43,447.60 L 203.60,447.35 L 204.19,447.12 L 205.50,447.00 L 206.06,447.00 L 206.84,447.12 L 207.18,447.21 L 207.59,447.64 L 207.76,447.91 L 207.92,448.83 L 208.00,450.93 L 208.00,452.05 L 207.55,454.18 L 207.41,454.67 L 207.05,455.51 L 206.43,456.43 L 205.86,457.00 L 204.18,457.67 L 203.30,457.93 L 201.36,458.00 L 200.41,457.97 L 198.73,457.46 L 198.35,457.30 L 197.72,456.87 L 197.43,456.63 L 197.04,456.07 L 196.89,455.80 L 196.63,454.57 L 196.51,453.86 L 196.30,451.94 L 196.21,450.91 L 196.08,448.53 L 196.00,444.72 L 196.00,443.46 L 196.06,441.29 L 196.10,440.26 L 196.25,438.49 L 196.34,437.66 L 196.61,436.28 L 196.75,435.63 L 197.14,434.59 L 197.35,434.11 L 197.89,433.38 L 198.17,433.04 L 198.86,432.57 L 199.23,432.37 L 200.09,432.13 L 201.61,432.00 L 202.56,432.00 M 490.91,432.08 L 491.24,432.14 L 491.71,432.34 L 492.03,432.75 L 492.03,432.80 L 492.07,433.11 L 492.09,433.30 L 492.16,433.87 L 492.23,434.49 L 492.48,436.36 L 492.61,437.38 L 492.94,439.86 L 493.50,444.00 L 493.74,445.77 L 494.14,448.67 L 494.32,450.02 L 494.58,452.17 L 494.69,453.16 L 494.81,454.66 L 494.86,455.34 L 494.83,456.32 L 494.80,456.75 L 494.63,457.31 L 494.52,457.55 L 494.17,457.81 L 492.50,458.00 L 491.97,458.00 L 491.22,457.89 L 490.89,457.80 L 490.46,457.45 L 490.28,457.23 L 490.09,456.54 L 490.00,455.00 L 490.00,454.50 L 489.91,453.69 L 489.84,453.31 L 489.62,452.75 L 489.50,452.50 L 489.16,452.19 L 488.50,452.00 L 488.25,452.00 L 487.84,452.19 L 487.66,452.31 L 487.38,452.75 L 487.25,453.00 L 487.09,453.69 L 487.00,455.00 L 487.00,455.63 L 486.91,456.54 L 486.84,456.94 L 486.54,457.45 L 486.36,457.67 L 485.78,457.89 L 484.50,458.00 L 483.81,458.00 L 482.74,457.63 L 482.30,457.41 L 482.03,456.75 L 482.03,456.66 L 482.07,456.28 L 482.09,456.06 L 482.16,455.44 L 482.23,454.75 L 482.48,452.78 L 482.61,451.72 L 482.94,449.18 L 483.50,445.00 L 483.70,443.56 L 484.06,440.82 L 484.23,439.51 L 484.52,437.22 L 484.66,436.15 L 484.84,434.56 L 484.88,434.22 L 484.93,433.72 L 484.97,433.25 L 484.97,433.08 L 485.28,432.79 L 485.47,432.65 L 486.08,432.42 L 486.74,432.21 L 488.49,432.00 L 489.37,431.94 M 704.42,432.59 L 704.95,432.65 L 705.70,432.89 L 706.04,433.03 L 706.46,433.45 L 706.82,434.32 L 706.94,434.91 L 706.55,435.81 L 705.09,436.69 L 704.77,436.77 L 704.23,437.15 L 703.98,437.37 L 703.57,437.95 L 703.21,438.58 L 702.91,440.09 L 702.84,440.84 L 703.19,442.11 L 703.32,442.38 L 703.71,442.76 L 704.50,443.00 L 704.92,443.00 L 705.56,443.58 L 706.00,445.00 L 706.00,445.56 L 705.56,446.42 L 704.50,447.00 L 704.24,447.00 L 703.82,447.20 L 703.63,447.34 L 703.36,447.83 L 703.24,448.12 L 703.09,448.92 L 703.00,450.50 L 703.00,451.21 L 703.08,452.24 L 703.15,452.70 L 703.39,453.31 L 703.54,453.57 L 704.00,453.85 L 705.00,454.00 L 705.67,454.00 L 706.50,454.50 L 707.00,456.00 L 707.00,456.43 L 706.84,457.03 L 706.71,457.30 L 706.18,457.64 L 705.86,457.78 L 704.81,457.93 L 702.47,458.00 L 697.94,458.00 L 698.50,432.50 L 703.25,432.50 M 690.14,432.07 L 690.69,432.13 L 691.35,432.41 L 691.62,432.58 L 691.88,433.16 L 692.00,434.50 L 692.00,434.96 L 691.89,435.66 L 691.82,435.98 L 691.55,436.44 L 691.39,436.64 L 690.93,436.87 L 690.00,437.00 L 689.61,437.00 L 689.03,437.14 L 688.77,437.24 L 688.42,437.62 L 688.26,437.85 L 688.09,438.55 L 688.00,440.00 L 688.00,440.58 L 688.09,441.45 L 688.16,441.84 L 688.42,442.38 L 688.57,442.60 L 689.03,442.86 L 690.00,443.00 L 690.67,443.00 L 691.50,443.50 L 692.00,445.00 L 692.00,445.67 L 691.50,446.50 L 690.00,447.00 L 689.56,447.00 L 688.95,447.18 L 688.68,447.32 L 688.34,447.94 L 688.20,448.32 L 688.07,449.60 L 688.00,452.50 L 688.00,453.71 L 687.93,455.40 L 687.88,456.14 L 687.66,457.06 L 687.52,457.45 L 687.05,457.82 L 686.00,458.00 L 685.53,458.00 L 684.89,457.70 L 684.75,457.58 L 684.53,457.14 L 684.43,456.88 L 684.29,456.12 L 684.22,455.70 L 684.13,454.53 L 684.09,453.89 L 684.05,452.23 L 684.03,451.34 L 684.01,449.10 L 684.00,447.90 L 684.00,445.00 L 684.00,432.00 L 688.90,432.00 M 394.14,432.07 L 394.69,432.13 L 395.35,432.41 L 395.62,432.58 L 395.88,433.16 L 396.00,434.50 L 396.00,434.96 L 395.89,435.66 L 395.82,435.98 L 395.55,436.44 L 395.39,436.64 L 394.93,436.87 L 394.00,437.00 L 393.61,437.00 L 393.03,437.14 L 392.77,437.24 L 392.42,437.62 L 392.26,437.85 L 392.09,438.55 L 392.00,440.00 L 392.00,440.58 L 392.09,441.45 L 392.16,441.84 L 392.42,442.38 L 392.57,442.60 L 393.03,442.86 L 394.00,443.00 L 394.67,443.00 L 395.50,443.50 L 396.00,445.00 L 396.00,445.67 L 395.50,446.50 L 394.00,447.00 L 393.61,447.00 L 393.03,447.14 L 392.76,447.24 L 392.41,447.64 L 392.26,447.87 L 392.09,448.59 L 392.00,450.09 L 392.00,450.66 L 392.11,451.56 L 392.18,451.97 L 392.45,452.60 L 392.61,452.89 L 393.07,453.30 L 394.00,453.71 L 394.55,453.85 L 395.42,454.63 L 396.00,456.12 L 396.00,456.50 L 395.83,457.06 L 395.71,457.30 L 395.22,457.63 L 394.92,457.77 L 394.00,457.92 L 392.00,458.00 L 388.00,458.00 L 388.00,432.00 L 392.90,432.00 M 677.04,432.21 L 677.20,432.30 L 677.44,432.65 L 677.55,432.87 L 677.71,433.57 L 677.78,433.97 L 677.88,435.11 L 677.92,435.74 L 677.96,437.42 L 677.98,438.33 L 677.99,440.64 L 678.00,444.93 L 678.00,458.00 L 672.94,458.00 L 673.22,445.25 L 673.25,443.70 L 673.32,441.15 L 673.35,439.96 L 673.42,438.04 L 673.46,437.15 L 673.56,435.76 L 673.62,435.13 L 673.77,434.20 L 673.85,433.77 L 674.06,433.19 L 674.18,432.94 L 674.47,432.61 L 675.75,432.18 L 676.31,432.10 M 428.11,432.30 L 428.25,432.42 L 428.47,432.86 L 428.57,433.12 L 428.71,433.88 L 428.78,434.30 L 428.87,435.47 L 428.91,436.11 L 428.95,437.77 L 428.97,438.66 L 428.99,440.90 L 429.00,445.00 L 429.00,446.54 L 428.99,449.10 L 428.99,450.30 L 428.95,452.23 L 428.93,453.13 L 428.87,454.53 L 428.83,455.17 L 428.71,456.12 L 428.65,456.55 L 428.47,457.14 L 428.37,457.39 L 428.11,457.70 L 427.00,458.00 L 426.53,458.00 L 425.89,457.70 L 425.75,457.58 L 425.53,457.14 L 425.43,456.88 L 425.29,456.12 L 425.22,455.70 L 425.13,454.53 L 425.09,453.89 L 425.05,452.23 L 425.03,451.34 L 425.01,449.10 L 425.00,447.90 L 425.00,445.00 L 425.00,443.46 L 425.01,440.90 L 425.01,439.70 L 425.05,437.77 L 425.07,436.87 L 425.13,435.47 L 425.17,434.83 L 425.29,433.88 L 425.35,433.45 L 425.53,432.86 L 425.63,432.61 L 425.89,432.30 L 427.00,432.00 L 427.47,432.00 M 442.67,432.10 L 443.36,432.31 L 443.65,432.46 L 443.89,433.04 L 444.00,434.44 L 444.00,434.92 L 443.90,435.64 L 443.82,435.97 L 443.55,436.43 L 443.40,436.63 L 442.94,436.87 L 442.00,437.00 L 441.61,437.00 L 441.03,437.14 L 440.77,437.24 L 440.42,437.62 L 440.26,437.85 L 440.09,438.55 L 440.00,440.00 L 440.00,440.58 L 440.09,441.45 L 440.16,441.84 L 440.42,442.38 L 440.57,442.60 L 441.03,442.86 L 442.00,443.00 L 442.67,443.00 L 443.50,443.50 L 444.00,445.00 L 444.00,445.67 L 443.50,446.50 L 442.00,447.00 L 441.56,447.00 L 440.95,447.18 L 440.68,447.32 L 440.34,447.94 L 440.20,448.32 L 440.07,449.60 L 440.00,452.50 L 440.00,453.15 L 439.99,454.23 L 439.98,454.74 L 439.94,455.56 L 439.89,456.32 L 439.64,457.21 L 439.47,457.57 L 438.88,457.87 L 437.47,458.00 L 434.94,458.00 L 435.50,432.50 L 439.75,432.19 L 440.74,432.12 L 442.09,432.09 M 456.14,432.07 L 456.69,432.13 L 457.35,432.41 L 457.62,432.58 L 457.88,433.16 L 458.00,434.50 L 458.00,434.96 L 457.89,435.66 L 457.82,435.98 L 457.55,436.44 L 457.39,436.64 L 456.93,436.87 L 456.00,437.00 L 455.61,437.00 L 455.03,437.14 L 454.77,437.24 L 454.42,437.62 L 454.26,437.85 L 454.09,438.55 L 454.00,440.00 L 454.00,440.58 L 454.09,441.45 L 454.16,441.84 L 454.42,442.38 L 454.57,442.60 L 455.03,442.86 L 456.00,443.00 L 456.67,443.00 L 457.50,443.50 L 458.00,445.00 L 458.00,445.67 L 457.50,446.50 L 456.00,447.00 L 455.60,447.00 L 455.00,447.15 L 454.74,447.26 L 454.39,447.69 L 454.24,447.95 L 454.08,448.76 L 454.00,450.50 L 454.00,451.21 L 454.08,452.24 L 454.15,452.70 L 454.39,453.31 L 454.54,453.57 L 455.00,453.85 L 456.00,454.00 L 456.67,454.00 L 457.50,454.50 L 458.00,456.00 L 458.00,456.42 L 457.84,457.01 L 457.73,457.28 L 457.26,457.62 L 456.97,457.77 L 456.06,457.92 L 454.06,458.00 L 452.98,458.00 L 451.18,457.78 L 450.80,457.71 L 450.23,457.54 L 450.00,457.45 L 449.80,457.25 L 449.76,457.15 L 449.70,456.65 L 449.67,456.35 L 449.63,455.50 L 449.60,454.57 L 449.61,452.04 L 449.62,450.72 L 449.72,447.88 L 449.95,444.00 L 450.00,443.31 L 450.24,442.60 L 450.31,442.49 L 450.45,442.46 L 450.66,442.75 L 450.80,443.09 L 451.36,443.62 L 452.33,443.97 L 452.49,443.96 L 452.63,443.82 L 452.67,443.73 L 452.57,443.44 L 451.50,442.22 L 451.05,441.83 L 450.41,440.90 L 450.12,440.40 L 449.80,439.12 L 449.67,438.42 L 449.63,436.64 L 449.87,433.25 L 449.89,433.06 L 450.20,432.73 L 450.40,432.58 L 451.04,432.34 L 451.40,432.23 L 452.33,432.09 L 454.00,432.00 L 454.90,432.00 M 600.75,432.37 L 602.09,432.55 L 604.49,433.31 L 605.03,433.52 L 605.89,433.99 L 606.75,434.70 L 606.94,434.96 L 607.27,436.00 L 607.42,436.59 L 607.66,438.23 L 607.77,439.12 L 607.91,441.27 L 608.00,444.97 L 608.00,446.33 L 607.93,448.66 L 607.89,449.77 L 607.71,451.61 L 607.60,452.48 L 607.28,453.89 L 607.09,454.55 L 606.60,455.58 L 606.32,456.05 L 605.62,456.75 L 605.24,457.07 L 604.29,457.50 L 603.79,457.68 L 602.59,457.89 L 600.44,458.00 L 596.00,458.00 L 596.00,431.73 M 512.11,432.30 L 512.25,432.42 L 512.47,432.86 L 512.57,433.12 L 512.71,433.88 L 512.78,434.30 L 512.87,435.47 L 512.91,436.11 L 512.95,437.77 L 512.97,438.66 L 512.99,440.90 L 513.00,445.00 L 513.00,458.00 L 510.05,458.00 L 509.26,457.80 L 508.90,457.65 L 508.33,456.95 L 508.06,456.51 L 507.56,455.06 L 507.43,454.64 L 507.16,453.61 L 506.70,451.75 L 505.23,445.50 L 505.12,451.75 L 505.10,452.50 L 505.07,453.74 L 505.05,454.32 L 505.00,455.25 L 504.93,456.12 L 504.66,457.12 L 504.49,457.53 L 503.89,457.87 L 502.47,458.00 L 499.94,458.00 L 500.22,445.26 L 500.25,443.83 L 500.32,441.41 L 500.35,440.28 L 500.42,438.41 L 500.47,437.54 L 500.57,436.15 L 500.62,435.51 L 500.75,434.53 L 500.83,434.08 L 501.01,433.42 L 501.11,433.13 L 501.35,432.73 L 502.36,432.17 L 503.05,432.04 L 504.10,432.19 L 504.59,432.36 L 505.37,433.32 L 505.55,433.63 L 505.89,434.44 L 506.06,434.88 L 506.40,435.98 L 506.56,436.58 L 506.90,438.01 L 507.44,440.58 L 508.81,447.50 L 508.91,439.75 L 508.92,438.87 L 508.95,437.39 L 508.96,436.70 L 509.01,435.56 L 509.04,435.04 L 509.13,434.20 L 509.17,433.81 L 509.30,433.23 L 509.45,432.70 L 509.92,432.22 L 511.00,432.00 L 511.47,432.00 M 524.04,432.28 L 524.86,432.39 L 526.22,432.62 L 526.86,432.75 L 527.89,433.09 L 528.37,433.28 L 529.12,433.80 L 529.47,434.09 L 529.98,434.89 L 530.21,435.33 L 530.53,436.48 L 530.67,437.11 L 530.84,438.71 L 530.91,439.57 L 530.97,441.70 L 531.00,445.59 L 531.00,447.04 L 530.97,449.45 L 530.94,450.58 L 530.81,452.42 L 530.74,453.27 L 530.48,454.61 L 530.33,455.22 L 529.89,456.14 L 529.64,456.56 L 528.97,457.13 L 528.60,457.38 L 527.66,457.69 L 527.15,457.82 L 525.88,457.94 L 523.57,458.00 L 520.00,458.00 L 520.00,431.74 M 553.67,432.10 L 554.36,432.31 L 554.65,432.46 L 554.89,433.04 L 555.00,434.44 L 555.00,434.92 L 554.90,435.64 L 554.82,435.97 L 554.55,436.43 L 554.40,436.63 L 553.94,436.87 L 553.00,437.00 L 552.61,437.00 L 552.03,437.14 L 551.77,437.24 L 551.42,437.62 L 551.26,437.85 L 551.09,438.55 L 551.00,440.00 L 551.00,440.58 L 551.09,441.45 L 551.16,441.84 L 551.42,442.38 L 551.57,442.60 L 552.03,442.86 L 553.00,443.00 L 553.67,443.00 L 554.50,443.50 L 555.00,445.00 L 555.00,445.67 L 554.50,446.50 L 553.00,447.00 L 552.56,447.00 L 551.95,447.18 L 551.68,447.32 L 551.34,447.94 L 551.20,448.32 L 551.07,449.60 L 551.00,452.50 L 551.00,453.15 L 550.99,454.23 L 550.98,454.74 L 550.94,455.56 L 550.89,456.32 L 550.64,457.21 L 550.47,457.57 L 549.88,457.87 L 548.47,458.00 L 545.94,458.00 L 546.50,432.50 L 550.75,432.19 L 551.74,432.12 L 553.09,432.09 M 381.41,432.49 L 381.56,432.68 L 381.77,433.29 L 381.86,433.64 L 381.95,434.64 L 381.97,435.19 L 381.94,436.65 L 381.90,437.45 L 381.75,439.46 L 381.65,440.54 L 381.39,443.19 L 380.86,447.96 L 379.72,458.00 L 375.71,458.00 L 374.71,457.90 L 374.26,457.83 L 373.62,457.55 L 373.33,457.38 L 372.95,456.86 L 372.78,456.56 L 372.57,455.75 L 372.51,455.46 L 372.32,454.18 L 372.21,453.45 L 371.96,451.48 L 371.83,450.44 L 371.54,448.05 L 371.39,446.82 L 371.10,444.25 L 370.96,442.96 L 370.68,440.46 L 370.55,439.24 L 370.33,437.07 L 370.23,436.05 L 370.09,434.46 L 370.00,433.01 L 370.00,432.69 L 370.66,432.29 L 372.25,432.18 L 372.77,432.25 L 373.51,432.62 L 373.84,432.88 L 374.31,434.03 L 374.42,434.39 L 374.61,435.36 L 374.70,435.88 L 374.88,437.22 L 374.97,437.95 L 375.16,439.74 L 375.47,443.00 L 375.61,444.44 L 375.87,446.80 L 376.00,447.88 L 376.24,449.39 L 376.35,450.02 L 376.54,450.53 L 376.58,450.59 L 376.64,450.49 L 376.72,450.00 L 376.80,448.87 L 376.96,446.83 L 377.04,445.84 L 377.18,444.06 L 377.32,442.33 L 377.55,439.59 L 377.67,438.33 L 377.87,436.39 L 377.98,435.51 L 378.18,434.25 L 378.29,433.69 L 378.52,432.95 L 378.64,432.63 L 378.92,432.28 L 380.09,432.00 L 380.66,432.00 M 663.11,432.24 L 663.38,432.44 L 663.69,433.35 L 663.76,433.64 L 663.85,434.42 L 663.89,434.84 L 663.95,435.91 L 663.97,436.49 L 663.99,437.92 L 664.00,440.50 L 664.00,441.67 L 663.93,443.80 L 663.88,444.82 L 663.73,446.50 L 663.65,447.27 L 663.44,448.33 L 663.08,449.00 L 662.95,449.00 L 662.67,449.25 L 662.53,449.41 L 662.25,449.93 L 661.98,450.49 L 661.51,452.03 L 661.31,452.81 L 661.12,454.29 L 661.10,454.62 L 661.14,455.16 L 661.35,455.68 L 661.42,455.76 L 661.64,455.63 L 661.76,455.52 L 662.04,455.07 L 662.93,452.86 L 663.12,452.26 L 663.40,451.46 L 663.52,451.13 L 663.67,450.88 L 663.72,450.81 L 663.75,451.08 L 663.66,452.08 L 663.59,452.63 L 663.58,453.40 L 663.60,453.74 L 663.81,454.12 L 663.95,454.27 L 664.47,454.35 L 665.67,454.21 L 666.13,454.12 L 666.81,454.09 L 667.12,454.10 L 667.53,454.29 L 667.70,454.41 L 667.90,454.87 L 668.00,455.88 L 668.00,456.33 L 667.85,456.97 L 667.75,457.26 L 667.28,457.62 L 667.00,457.77 L 666.08,457.92 L 664.05,458.00 L 660.11,458.00 L 659.80,453.25 L 659.76,452.60 L 659.71,450.75 L 659.69,449.77 L 659.68,447.47 L 659.82,440.25 L 659.86,439.33 L 659.93,437.78 L 659.97,437.05 L 660.05,435.85 L 660.10,435.29 L 660.21,434.40 L 660.27,433.99 L 660.41,433.36 L 660.57,432.79 L 661.04,432.25 L 662.07,432.00 L 662.51,432.00 M 641.03,432.58 L 641.74,432.95 L 643.01,434.10 L 643.60,434.72 L 644.45,436.19 L 645.00,438.50 L 645.00,439.00 L 644.89,439.73 L 644.81,440.06 L 644.50,440.50 L 644.31,440.69 L 643.73,440.89 L 642.50,441.00 L 642.05,441.00 L 641.35,440.89 L 641.03,440.82 L 640.57,440.56 L 640.37,440.40 L 640.14,439.95 L 640.00,439.06 L 640.00,438.53 L 639.71,437.51 L 639.00,436.50 L 638.86,436.41 L 638.60,436.46 L 638.48,436.53 L 638.28,436.86 L 638.00,438.69 L 638.00,439.19 L 638.19,440.13 L 638.33,440.60 L 638.81,441.50 L 639.09,441.95 L 639.90,442.86 L 641.50,444.29 L 642.22,444.87 L 643.27,445.86 L 643.73,446.34 L 644.34,447.28 L 644.59,447.76 L 644.86,448.85 L 645.00,450.89 L 645.00,452.04 L 644.56,453.94 L 644.26,454.83 L 643.25,456.17 L 642.68,456.77 L 641.12,457.54 L 638.21,458.00 L 637.17,458.00 L 635.60,457.51 L 634.90,457.19 L 634.04,456.07 L 633.75,455.53 L 633.30,453.95 L 633.00,451.57 L 633.00,451.05 L 633.11,450.29 L 633.18,449.96 L 633.49,449.51 L 633.68,449.32 L 634.25,449.11 L 635.49,449.00 L 635.98,449.00 L 636.69,449.10 L 637.01,449.17 L 637.41,449.44 L 637.59,449.60 L 637.74,450.10 L 637.74,451.14 L 637.67,451.73 L 637.94,452.78 L 638.75,453.72 L 638.96,453.80 L 639.29,453.72 L 639.45,453.65 L 639.68,453.28 L 639.79,453.06 L 639.92,452.40 L 640.00,451.08 L 640.00,450.24 L 639.78,448.91 L 639.71,448.63 L 639.53,448.24 L 639.24,448.00 L 639.14,448.00 L 638.73,447.80 L 638.50,447.67 L 637.90,447.25 L 635.74,445.46 L 635.12,444.88 L 634.19,443.55 L 633.78,442.87 L 633.26,441.40 L 633.05,440.66 L 632.92,439.17 L 632.91,438.42 L 633.14,436.99 L 633.30,436.30 L 633.87,435.04 L 634.20,434.44 L 635.09,433.45 L 635.57,433.00 L 636.75,432.39 L 638.83,432.00 L 639.56,432.00 M 626.11,432.30 L 626.25,432.42 L 626.47,432.86 L 626.57,433.12 L 626.71,433.88 L 626.78,434.30 L 626.87,435.47 L 626.91,436.11 L 626.95,437.77 L 626.97,438.66 L 626.99,440.90 L 627.00,445.00 L 627.00,446.54 L 626.99,449.10 L 626.99,450.30 L 626.95,452.23 L 626.93,453.13 L 626.87,454.53 L 626.83,455.17 L 626.71,456.12 L 626.65,456.55 L 626.47,457.14 L 626.37,457.39 L 626.11,457.70 L 625.00,458.00 L 624.53,458.00 L 623.89,457.70 L 623.75,457.58 L 623.53,457.14 L 623.43,456.88 L 623.29,456.12 L 623.22,455.70 L 623.13,454.53 L 623.09,453.89 L 623.05,452.23 L 623.03,451.34 L 623.01,449.10 L 623.00,447.90 L 623.00,445.00 L 623.00,443.46 L 623.01,440.90 L 623.01,439.70 L 623.05,437.77 L 623.07,436.87 L 623.13,435.47 L 623.17,434.83 L 623.29,433.88 L 623.35,433.45 L 623.53,432.86 L 623.63,432.61 L 623.89,432.30 L 625.00,432.00 L 625.47,432.00 M 322.14,432.07 L 322.69,432.13 L 323.35,432.41 L 323.62,432.58 L 323.88,433.16 L 324.00,434.50 L 324.00,434.96 L 323.89,435.66 L 323.82,435.98 L 323.55,436.44 L 323.39,436.64 L 322.93,436.87 L 322.00,437.00 L 321.61,437.00 L 321.03,437.14 L 320.77,437.24 L 320.42,437.62 L 320.26,437.85 L 320.09,438.55 L 320.00,440.00 L 320.00,440.58 L 320.09,441.45 L 320.16,441.84 L 320.42,442.38 L 320.57,442.60 L 321.03,442.86 L 322.00,443.00 L 322.67,443.00 L 323.50,443.50 L 324.00,445.00 L 324.00,445.67 L 323.50,446.50 L 322.00,447.00 L 321.61,447.00 L 321.03,447.14 L 320.76,447.24 L 320.41,447.64 L 320.26,447.87 L 320.09,448.59 L 320.00,450.09 L 320.00,450.66 L 320.11,451.56 L 320.18,451.97 L 320.45,452.60 L 320.61,452.89 L 321.07,453.30 L 322.00,453.71 L 322.55,453.85 L 323.42,454.63 L 324.00,456.12 L 324.00,456.50 L 323.83,457.06 L 323.71,457.30 L 323.22,457.63 L 322.92,457.77 L 322.00,457.92 L 320.00,458.00 L 316.00,458.00 L 316.00,432.00 L 320.90,432.00 M 303.65,442.75 L 303.77,444.29 L 304.00,446.69 L 304.11,447.76 L 304.32,449.15 L 304.37,449.43 L 304.45,449.78 L 304.50,449.92 L 304.57,449.98 L 304.61,449.97 L 304.67,449.72 L 304.73,449.00 L 304.83,447.22 L 305.02,444.19 L 305.11,442.76 L 305.31,440.35 L 305.41,439.22 L 305.62,437.38 L 305.73,436.52 L 305.97,435.17 L 306.10,434.55 L 306.38,433.63 L 306.54,433.22 L 306.88,432.66 L 307.07,432.42 L 307.49,432.15 L 308.22,432.00 L 308.71,432.00 L 309.35,432.17 L 309.62,432.32 L 309.88,433.11 L 309.93,433.36 L 309.96,434.06 L 309.97,434.44 L 309.93,435.43 L 309.90,435.96 L 309.80,437.30 L 309.60,439.75 L 309.49,440.93 L 309.31,443.06 L 309.21,444.09 L 309.05,445.95 L 308.89,447.73 L 308.61,450.55 L 308.47,451.85 L 308.21,453.81 L 308.07,454.69 L 307.78,455.94 L 307.62,456.50 L 307.25,457.20 L 307.05,457.49 L 306.57,457.80 L 306.31,457.92 L 305.66,457.99 L 304.46,458.00 L 301.19,458.00 L 300.35,447.25 L 300.23,445.71 L 300.00,443.31 L 299.89,442.24 L 299.68,440.85 L 299.63,440.57 L 299.55,440.22 L 299.50,440.08 L 299.43,440.02 L 299.39,440.03 L 299.33,440.28 L 299.27,441.00 L 299.23,441.62 L 299.12,443.24 L 299.06,444.10 L 298.92,446.01 L 298.43,451.75 L 298.36,452.51 L 298.23,453.76 L 298.17,454.35 L 298.04,455.29 L 297.91,456.16 L 297.53,457.15 L 297.31,457.55 L 296.61,457.88 L 294.98,458.00 L 294.19,458.00 L 292.83,457.78 L 292.24,457.64 L 291.69,457.25 L 291.63,457.15 L 291.47,456.37 L 291.38,455.90 L 291.19,454.52 L 291.09,453.77 L 290.88,451.97 L 290.59,449.00 L 290.40,446.94 L 289.94,442.28 L 289.82,441.16 L 289.60,439.13 L 289.32,436.66 L 289.17,435.50 L 289.03,433.95 L 288.99,433.28 L 289.13,432.54 L 289.25,432.25 L 289.78,432.07 L 291.11,432.16 L 291.67,432.24 L 292.45,432.56 L 292.80,432.79 L 293.26,433.77 L 293.36,434.08 L 293.54,434.90 L 293.62,435.35 L 293.78,436.51 L 293.85,437.13 L 294.00,438.67 L 294.25,441.50 L 294.37,442.97 L 294.60,445.42 L 294.71,446.56 L 294.91,448.34 L 295.01,449.14 L 295.18,450.24 L 295.27,450.71 L 295.42,451.13 L 295.49,451.26 L 295.61,451.00 L 295.67,450.79 L 295.76,449.85 L 295.80,449.30 L 295.87,447.69 L 295.93,444.50 L 295.95,443.14 L 296.01,440.83 L 296.04,439.75 L 296.14,437.95 L 296.20,437.11 L 296.38,435.75 L 296.47,435.13 L 296.74,434.16 L 296.88,433.72 L 297.25,433.08 L 297.45,432.79 L 297.95,432.42 L 300.02,432.00 L 302.81,432.00 M 221.91,432.08 L 222.24,432.14 L 222.71,432.34 L 223.03,432.75 L 223.03,432.80 L 223.07,433.11 L 223.09,433.30 L 223.16,433.87 L 223.23,434.49 L 223.48,436.36 L 223.61,437.38 L 223.94,439.86 L 224.50,444.00 L 224.74,445.77 L 225.14,448.67 L 225.32,450.02 L 225.58,452.17 L 225.69,453.16 L 225.81,454.66 L 225.86,455.34 L 225.83,456.32 L 225.80,456.75 L 225.63,457.31 L 225.52,457.55 L 225.17,457.81 L 223.50,458.00 L 222.97,458.00 L 222.22,457.89 L 221.89,457.80 L 221.46,457.45 L 221.28,457.23 L 221.09,456.54 L 221.00,455.00 L 221.00,454.50 L 220.91,453.69 L 220.84,453.31 L 220.62,452.75 L 220.50,452.50 L 220.16,452.19 L 219.50,452.00 L 219.25,452.00 L 218.84,452.19 L 218.66,452.31 L 218.38,452.75 L 218.25,453.00 L 218.09,453.69 L 218.00,455.00 L 218.00,455.63 L 217.91,456.54 L 217.84,456.94 L 217.54,457.45 L 217.36,457.67 L 216.78,457.89 L 215.50,458.00 L 214.81,458.00 L 213.74,457.63 L 213.30,457.41 L 213.03,456.75 L 213.03,456.66 L 213.07,456.28 L 213.09,456.06 L 213.16,455.44 L 213.23,454.75 L 213.48,452.78 L 213.61,451.72 L 213.94,449.18 L 214.50,445.00 L 214.70,443.56 L 215.06,440.82 L 215.23,439.51 L 215.52,437.22 L 215.66,436.15 L 215.84,434.56 L 215.88,434.22 L 215.93,433.72 L 215.97,433.25 L 215.97,433.08 L 216.28,432.79 L 216.47,432.65 L 217.08,432.42 L 217.74,432.21 L 219.49,432.00 L 220.37,431.94 M 234.60,432.78 L 234.74,432.89 L 234.97,433.27 L 235.07,433.49 L 235.24,434.13 L 235.32,434.49 L 235.44,435.46 L 235.49,435.99 L 235.58,437.36 L 235.62,438.09 L 235.69,439.92 L 235.78,443.25 L 235.82,444.73 L 235.97,447.42 L 236.05,448.71 L 236.26,450.84 L 236.37,451.82 L 236.62,453.15 L 236.68,453.42 L 236.81,453.78 L 237.00,454.00 L 237.06,454.00 L 237.19,453.78 L 237.26,453.64 L 237.38,453.15 L 237.51,452.61 L 237.74,450.84 L 237.85,449.87 L 238.03,447.42 L 238.22,443.25 L 238.25,442.00 L 238.31,439.92 L 238.35,438.94 L 238.42,437.36 L 238.46,436.62 L 238.56,435.46 L 238.62,434.93 L 238.76,434.13 L 238.84,433.77 L 239.03,433.27 L 239.14,433.05 L 239.40,432.78 L 240.50,432.50 L 240.97,432.50 L 241.61,432.78 L 241.75,432.90 L 241.97,433.29 L 242.08,433.52 L 242.24,434.18 L 242.32,434.55 L 242.44,435.56 L 242.49,436.11 L 242.58,437.52 L 242.62,438.29 L 242.68,440.19 L 242.78,443.65 L 242.82,445.23 L 242.84,447.89 L 242.84,449.15 L 242.76,451.22 L 242.70,452.19 L 242.47,453.74 L 242.34,454.46 L 241.95,455.56 L 241.73,456.07 L 241.13,456.79 L 240.81,457.11 L 239.98,457.54 L 239.53,457.71 L 238.44,457.90 L 236.46,458.00 L 235.87,458.00 L 234.87,457.88 L 234.40,457.81 L 233.62,457.52 L 232.90,457.20 L 232.00,456.00 L 231.84,455.71 L 231.59,454.40 L 231.48,453.64 L 231.31,451.55 L 231.24,450.42 L 231.18,447.74 L 231.22,443.25 L 231.25,442.00 L 231.31,439.92 L 231.35,438.94 L 231.42,437.36 L 231.46,436.62 L 231.56,435.46 L 231.62,434.93 L 231.76,434.13 L 231.84,433.77 L 232.03,433.27 L 232.14,433.05 L 232.40,432.78 L 233.50,432.50 L 233.96,432.50 M 272.42,432.59 L 272.95,432.65 L 273.70,432.89 L 274.04,433.03 L 274.46,433.45 L 274.82,434.32 L 274.94,434.91 L 274.55,435.81 L 273.09,436.69 L 272.77,436.77 L 272.23,437.15 L 271.98,437.37 L 271.57,437.95 L 271.21,438.58 L 270.91,440.09 L 270.84,440.84 L 271.19,442.11 L 271.32,442.38 L 271.71,442.76 L 272.50,443.00 L 272.92,443.00 L 273.56,443.58 L 274.00,445.00 L 274.00,445.56 L 273.56,446.42 L 272.50,447.00 L 272.24,447.00 L 271.82,447.20 L 271.63,447.34 L 271.36,447.83 L 271.24,448.12 L 271.09,448.92 L 271.00,450.50 L 271.00,451.21 L 271.08,452.24 L 271.15,452.70 L 271.39,453.31 L 271.54,453.57 L 272.00,453.85 L 273.00,454.00 L 273.67,454.00 L 274.50,454.50 L 275.00,456.00 L 275.00,456.43 L 274.84,457.03 L 274.71,457.30 L 274.18,457.64 L 273.86,457.78 L 272.81,457.93 L 270.47,458.00 L 265.94,458.00 L 266.50,432.50 L 271.25,432.50 M 255.00,431.97 L 256.18,432.25 L 258.07,433.04 L 258.41,433.22 L 258.97,433.80 L 259.23,434.12 L 259.62,434.90 L 259.96,435.72 L 260.13,437.57 L 260.13,438.47 L 259.62,439.96 L 259.45,440.28 L 258.97,440.72 L 258.07,441.00 L 257.45,441.00 L 256.56,440.42 L 255.82,438.75 L 255.72,438.04 L 255.30,437.14 L 255.06,436.77 L 254.51,436.56 L 254.23,436.55 L 253.72,437.04 L 253.20,438.59 L 253.15,438.95 L 253.28,439.68 L 253.39,440.06 L 253.83,440.83 L 254.10,441.22 L 254.87,442.05 L 256.41,443.36 L 257.24,444.00 L 258.55,445.45 L 259.14,446.20 L 259.97,447.79 L 260.33,448.60 L 260.70,450.23 L 260.84,451.04 L 260.77,452.59 L 260.68,453.34 L 260.17,454.71 L 259.87,455.36 L 258.95,456.43 L 258.44,456.92 L 257.11,457.58 L 254.68,458.00 L 253.78,458.00 L 252.01,457.65 L 251.60,457.54 L 250.92,457.27 L 250.61,457.12 L 250.20,456.80 L 250.03,456.63 L 249.73,456.07 L 249.59,455.76 L 249.35,454.98 L 249.00,452.30 L 249.00,451.64 L 249.09,450.67 L 249.15,450.24 L 249.40,449.66 L 249.55,449.41 L 250.01,449.15 L 251.00,449.00 L 251.37,449.00 L 251.93,449.13 L 252.19,449.22 L 252.55,449.56 L 252.71,449.76 L 252.89,450.34 L 253.00,451.50 L 253.00,452.28 L 253.40,453.33 L 254.50,454.00 L 254.87,454.00 L 255.41,453.79 L 255.65,453.65 L 255.95,453.21 L 256.07,452.97 L 256.13,452.35 L 256.14,452.02 L 255.99,451.27 L 255.78,450.50 L 254.78,448.80 L 252.50,446.43 L 251.74,445.85 L 250.67,444.89 L 250.20,444.42 L 249.61,443.48 L 249.36,442.98 L 249.12,441.80 L 249.00,439.45 L 249.00,438.65 L 249.18,437.21 L 249.29,436.52 L 249.69,435.33 L 249.91,434.77 L 250.50,433.85 L 250.82,433.42 L 251.58,432.78 L 251.99,432.49 L 252.91,432.14 L 253.39,432.00 L 254.46,431.96 M 566.36,436.99 L 566.08,437.64 L 565.95,438.06 L 565.70,439.44 L 565.59,440.20 L 565.40,442.14 L 565.21,445.49 L 565.18,446.39 L 565.14,447.93 L 565.13,448.65 L 565.12,449.86 L 565.12,450.43 L 565.16,451.35 L 565.18,451.78 L 565.26,452.45 L 565.36,453.06 L 565.70,453.68 L 566.50,454.00 L 566.83,454.00 L 567.30,453.68 L 567.50,453.45 L 567.74,452.45 L 567.78,452.14 L 567.84,451.35 L 567.86,450.92 L 567.88,449.86 L 567.88,449.29 L 567.86,447.93 L 567.84,447.20 L 567.79,445.49 L 567.75,444.29 L 567.60,442.14 L 567.51,441.11 L 567.30,439.44 L 567.18,438.67 L 566.92,437.64 L 566.50,436.99 M 413.13,452.00 L 412.46,452.29 L 412.00,453.00 L 412.00,453.27 L 412.28,453.71 L 412.94,454.00 L 413.20,454.00 L 413.79,453.71 L 414.07,453.52 L 414.50,453.00 L 414.67,452.72 L 414.48,452.29 L 413.56,452.00 M 358.36,436.99 L 358.08,437.64 L 357.95,438.06 L 357.70,439.44 L 357.59,440.20 L 357.40,442.14 L 357.21,445.49 L 357.18,446.39 L 357.14,447.93 L 357.13,448.65 L 357.12,449.86 L 357.12,450.43 L 357.16,451.35 L 357.18,451.78 L 357.26,452.45 L 357.36,453.06 L 357.70,453.68 L 358.50,454.00 L 358.83,454.00 L 359.30,453.68 L 359.50,453.45 L 359.74,452.45 L 359.78,452.14 L 359.84,451.35 L 359.86,450.92 L 359.88,449.86 L 359.88,449.29 L 359.86,447.93 L 359.84,447.20 L 359.79,445.49 L 359.75,444.29 L 359.60,442.14 L 359.51,441.11 L 359.30,439.44 L 359.18,438.67 L 358.92,437.64 L 358.50,436.99 M 341.13,452.00 L 340.46,452.29 L 340.00,453.00 L 340.00,453.27 L 340.28,453.71 L 340.94,454.00 L 341.20,454.00 L 341.79,453.71 L 342.07,453.52 L 342.50,453.00 L 342.67,452.72 L 342.48,452.29 L 341.56,452.00 M 601.20,437.00 L 600.76,437.34 L 600.56,437.58 L 600.30,438.56 L 600.19,439.14 L 600.06,440.95 L 600.04,441.47 L 600.02,442.69 L 600.00,444.83 L 600.00,445.91 L 600.05,447.93 L 600.08,448.89 L 600.19,450.55 L 600.25,451.32 L 600.39,452.44 L 600.64,453.31 L 600.84,453.51 L 601.20,453.71 L 601.38,453.78 L 601.69,453.71 L 601.84,453.64 L 602.09,453.30 L 602.22,453.09 L 602.42,452.47 L 602.52,452.13 L 602.68,451.23 L 602.75,450.75 L 602.86,449.56 L 602.91,448.94 L 602.96,447.47 L 602.99,446.70 L 603.00,444.94 L 603.00,444.14 L 602.99,442.76 L 602.97,442.11 L 602.94,441.00 L 602.89,439.96 L 602.70,438.57 L 602.59,437.98 L 602.24,437.34 L 601.50,437.00 M 583.84,436.00 L 583.59,436.68 L 583.47,437.12 L 583.28,438.56 L 583.19,439.37 L 583.07,441.44 L 583.00,445.08 L 583.00,445.94 L 583.02,447.43 L 583.03,448.14 L 583.06,449.36 L 583.11,450.52 L 583.27,452.09 L 583.37,452.77 L 583.66,453.49 L 584.25,453.75 L 584.45,453.69 L 584.80,453.14 L 584.96,452.81 L 585.25,451.75 L 585.38,451.17 L 585.59,449.66 L 585.68,448.86 L 585.80,446.95 L 585.89,445.19 L 585.87,442.27 L 585.83,440.91 L 585.58,438.84 L 585.43,437.91 L 584.95,436.72 L 583.98,436.00 M 525.22,437.00 L 524.76,437.35 L 524.56,437.60 L 524.29,438.64 L 524.18,439.27 L 524.06,441.26 L 524.04,441.83 L 524.01,443.19 L 524.00,445.58 L 524.00,447.19 L 524.06,449.61 L 524.11,450.70 L 524.27,452.19 L 524.37,452.83 L 524.66,453.51 L 525.25,453.75 L 525.46,453.68 L 525.81,453.06 L 525.98,452.67 L 526.26,451.39 L 526.39,450.68 L 526.59,448.76 L 526.67,447.72 L 526.79,445.17 L 526.82,444.32 L 526.86,442.86 L 526.87,442.17 L 526.88,441.02 L 526.87,439.93 L 526.74,438.53 L 526.65,437.93 L 526.31,437.32 L 525.54,437.00 M 389.72,442.00 L 389.29,442.29 L 389.00,443.00 L 389.00,443.27 L 389.29,443.71 L 390.00,444.00 L 390.27,444.00 L 390.71,443.71 L 390.89,443.52 L 391.00,443.00 L 391.00,442.72 L 390.71,442.29 L 390.00,442.00 M 317.72,442.00 L 317.29,442.29 L 317.00,443.00 L 317.00,443.27 L 317.29,443.71 L 318.00,444.00 L 318.27,444.00 L 318.71,443.71 L 318.89,443.52 L 319.00,443.00 L 319.00,442.72 L 318.71,442.29 L 318.00,442.00 Z" fill="rgba(197,82,0,1)"/>
<path d="M 164.58,301.30 L 164.43,301.97 L 164.32,302.41 L 163.96,303.87 L 163.75,304.69 L 163.19,306.84 L 162.89,308.00 L 162.16,310.76 L 161.78,312.21 L 160.90,315.49 L 160.45,317.18 L 159.46,320.90 L 158.94,322.80 L 157.85,326.86 L 156.12,333.24 L 147.50,364.97 L 141.25,371.92 L 135.00,378.86 L 135.00,388.86 L 135.23,392.20 L 135.32,393.07 L 135.58,394.93 L 135.73,395.89 L 136.13,398.04 L 136.35,399.16 L 136.93,401.73 L 137.24,403.08 L 138.02,406.20 L 138.43,407.84 L 138.80,409.24 L 138.49,408.11 L 138.15,406.90 L 137.49,404.54 L 137.19,403.49 L 136.61,401.47 L 136.36,400.61 L 135.89,398.99 L 135.70,398.35 L 135.34,397.19 L 135.22,396.80 L 135.00,396.17 L 134.95,396.07 L 134.44,395.76 L 133.98,396.02 L 133.67,396.39 L 133.01,397.28 L 132.60,397.97 L 131.72,399.53 L 131.19,400.57 L 130.32,402.24 L 129.83,403.17 L 129.62,403.53 L 128.86,404.76 L 128.59,405.05 L 128.10,405.40 L 127.92,405.30 L 127.58,404.92 L 127.42,404.50 L 125.54,400.82 L 123.81,398.29 L 122.80,397.10 L 120.69,394.76 L 119.57,393.77 L 117.31,391.92 L 116.22,391.27 L 113.48,389.82 L 111.83,389.18 L 110.93,388.98 L 109.04,388.67 L 107.84,388.59 L 106.59,388.54 L 105.87,388.52 L 104.37,388.50 L 103.50,388.50 L 101.16,388.52 L 99.80,388.56 L 99.21,388.59 L 97.03,388.78 L 96.14,388.97 L 94.46,389.41 L 93.65,389.76 L 92.02,390.55 L 91.08,391.11 L 86.65,393.73 L 81.73,391.17 L 77.07,389.38 L 73.59,388.55 L 71.84,388.33 L 68.39,388.04 L 66.87,388.12 L 65.40,388.24 L 64.75,388.36 L 63.51,388.65 L 63.00,388.85 L 62.03,389.37 L 62.00,389.61 L 62.33,389.69 L 62.73,389.76 L 63.02,389.79 L 63.68,389.84 L 64.11,389.86 L 65.03,389.90 L 65.61,389.91 L 66.83,389.93 L 67.55,389.94 L 70.46,390.05 L 72.21,390.21 L 72.94,390.32 L 74.30,390.57 L 74.79,390.72 L 75.63,391.03 L 75.80,391.20 L 76.27,391.97 L 76.54,392.73 L 76.65,393.19 L 77.00,395.21 L 77.00,396.28 L 76.86,398.27 L 76.60,399.42 L 76.37,399.95 L 75.85,400.98 L 75.47,401.49 L 74.63,402.52 L 74.08,403.08 L 72.37,404.60 L 71.30,405.27 L 70.71,405.48 L 69.44,405.82 L 68.64,405.90 L 66.87,406.00 L 65.70,406.00 L 63.33,405.94 L 62.02,405.81 L 61.48,405.70 L 60.49,405.42 L 60.10,405.21 L 59.39,404.73 L 59.12,404.41 L 58.65,403.69 L 58.50,403.22 L 58.23,402.21 L 58.17,401.57 L 58.07,400.22 L 58.07,399.40 L 58.11,397.66 L 58.16,396.63 L 58.24,393.94 L 58.21,392.52 L 58.15,392.02 L 58.01,391.15 L 57.90,390.94 L 57.66,390.65 L 57.50,390.74 L 54.50,392.72 L 52.59,394.29 L 51.70,395.17 L 49.98,396.99 L 49.22,397.98 L 47.77,399.98 L 47.17,401.02 L 44.38,405.92 L 41.64,400.34 L 40.53,398.22 L 39.84,397.02 L 39.54,396.57 L 38.97,395.77 L 38.77,395.56 L 38.40,395.26 L 38.32,395.34 L 38.08,395.92 L 37.80,396.75 L 37.61,397.37 L 37.19,398.72 L 36.93,399.57 L 36.39,401.39 L 36.08,402.45 L 35.44,404.66 L 35.14,405.69 L 35.43,404.58 L 36.12,401.77 L 36.44,400.43 L 36.93,398.13 L 37.16,397.03 L 37.48,395.10 L 37.62,394.17 L 37.81,392.47 L 37.99,387.50 L 37.91,379.50 L 24.30,365.50 L 16.02,334.50 L 15.45,332.37 L 14.34,328.25 L 13.80,326.21 L 12.76,322.36 L 12.25,320.47 L 11.31,316.97 L 10.85,315.27 L 10.02,312.22 L 9.62,310.75 L 8.93,308.23 L 8.61,307.04 L 8.08,305.14 L 7.84,304.27 L 7.50,303.07 L 7.23,302.18 L 7.20,302.09 L 7.46,302.08 L 7.64,302.10 L 8.31,302.30 L 8.69,302.43 L 9.72,302.82 L 10.27,303.04 L 11.62,303.61 L 12.33,303.92 L 13.95,304.65 L 14.79,305.03 L 16.64,305.90 L 22.86,308.93 L 39.00,317.01 L 39.00,345.56 L 47.75,341.37 L 51.29,339.68 L 58.07,336.92 L 61.41,335.65 L 67.88,333.74 L 71.08,332.89 L 77.33,331.81 L 80.44,331.38 L 86.58,331.15 L 89.64,331.14 L 95.75,331.75 L 98.81,332.16 L 105.00,333.61 L 108.12,334.44 L 114.48,336.73 L 124.32,341.11 L 125.39,341.65 L 127.39,342.62 L 128.34,343.09 L 129.97,343.86 L 130.71,344.21 L 131.78,344.69 L 132.57,345.00 L 132.60,345.00 L 132.65,344.72 L 132.68,344.53 L 132.74,343.90 L 132.76,343.55 L 132.81,342.61 L 132.83,342.11 L 132.87,340.90 L 132.91,339.64 L 132.97,336.47 L 133.00,331.06 L 133.00,317.11 L 148.70,309.09 L 150.86,307.98 L 154.81,305.99 L 155.75,305.52 L 157.49,304.65 L 158.33,304.23 L 159.84,303.48 L 160.56,303.13 L 161.78,302.54 L 162.36,302.26 L 163.26,301.83 L 163.67,301.64 L 164.22,301.40 L 164.57,301.28 Z" fill="rgba(227,178,97,1)"/>
<path d="M 38.77,395.56 L 38.97,395.77 L 39.54,396.57 L 39.84,397.02 L 40.53,398.22 L 41.64,400.34 L 44.38,405.92 L 44.29,406.06 L 48.27,413.78 L 51.49,419.89 L 52.42,421.61 L 52.79,422.27 L 53.45,423.44 L 53.65,423.75 L 54.49,424.93 L 54.93,425.34 L 55.78,426.00 L 56.05,426.00 L 57.04,425.75 L 58.06,425.35 L 58.70,425.07 L 61.54,423.74 L 63.08,422.94 L 66.13,421.30 L 67.31,420.59 L 68.40,419.91 L 68.78,419.64 L 69.41,419.15 L 69.50,419.00 L 70.14,418.43 L 70.94,417.89 L 71.48,417.56 L 72.65,416.86 L 73.33,416.47 L 74.77,415.67 L 75.54,415.26 L 78.77,413.58 L 80.33,412.83 L 81.87,412.11 L 82.58,411.80 L 83.92,411.22 L 84.49,411.00 L 85.95,410.74 L 87.10,410.83 L 87.82,411.03 L 89.39,411.52 L 90.40,411.94 L 92.57,412.88 L 93.95,413.54 L 99.95,416.69 L 101.76,417.74 L 102.52,418.21 L 103.90,419.11 L 104.35,419.45 L 108.10,421.87 L 110.94,423.38 L 112.30,423.98 L 113.64,424.55 L 114.26,424.78 L 115.44,425.19 L 115.95,425.33 L 116.90,425.55 L 117.25,425.58 L 117.88,425.58 L 118.04,425.48 L 118.79,424.52 L 119.58,423.26 L 120.08,422.39 L 121.15,420.50 L 121.74,419.39 L 122.95,417.09 L 123.57,415.85 L 125.59,411.64 L 126.56,409.36 L 126.87,408.46 L 127.37,406.80 L 127.46,406.18 L 127.53,405.07 L 127.41,404.68 L 126.20,402.12 L 127.42,404.50 L 127.58,404.92 L 127.92,405.30 L 128.10,405.40 L 128.59,405.05 L 128.86,404.76 L 129.62,403.53 L 129.83,403.17 L 130.32,402.24 L 131.19,400.57 L 131.72,399.53 L 132.60,397.97 L 133.01,397.28 L 133.67,396.39 L 133.98,396.02 L 134.44,395.76 L 134.95,396.07 L 135.00,396.17 L 135.22,396.80 L 135.34,397.19 L 135.70,398.35 L 135.89,398.99 L 136.36,400.61 L 136.61,401.47 L 137.19,403.49 L 137.49,404.54 L 138.15,406.90 L 138.49,408.11 L 139.21,410.74 L 141.54,419.32 L 147.40,441.15 L 139.34,457.32 L 138.59,458.83 L 137.27,461.51 L 136.65,462.79 L 135.58,465.05 L 135.08,466.12 L 134.24,467.99 L 133.85,468.87 L 133.23,470.38 L 132.94,471.09 L 132.52,472.28 L 132.34,472.83 L 132.11,473.73 L 132.02,474.14 L 131.97,474.79 L 132.07,475.50 L 132.42,476.38 L 132.69,477.71 L 132.71,478.03 L 132.57,478.65 L 132.47,478.95 L 132.06,479.60 L 131.81,479.93 L 131.07,480.68 L 130.66,481.07 L 129.55,481.99 L 128.95,482.48 L 127.41,483.64 L 124.57,485.72 L 123.79,486.29 L 122.41,487.32 L 121.75,487.81 L 120.62,488.70 L 119.55,489.55 L 118.09,490.90 L 117.47,491.52 L 116.81,492.50 L 116.59,493.67 L 116.69,494.04 L 116.19,494.91 L 115.99,495.15 L 115.37,495.70 L 115.01,495.98 L 114.03,496.66 L 113.50,497.01 L 112.11,497.85 L 111.37,498.28 L 109.54,499.31 L 108.56,499.85 L 106.22,501.09 L 102.10,503.25 L 100.05,504.32 L 96.24,506.26 L 94.41,507.18 L 91.31,508.72 L 90.59,509.07 L 89.36,509.66 L 88.77,509.94 L 87.83,510.37 L 87.40,510.57 L 86.80,510.82 L 86.33,510.98 L 86.27,510.98 L 85.86,510.81 L 85.61,510.71 L 84.84,510.36 L 84.42,510.16 L 83.33,509.64 L 82.76,509.36 L 81.40,508.69 L 79.99,507.99 L 76.52,506.23 L 74.71,505.30 L 70.72,503.23 L 69.21,502.44 L 66.64,501.07 L 65.41,500.42 L 63.36,499.29 L 62.39,498.76 L 60.81,497.84 L 60.07,497.40 L 58.91,496.65 L 58.38,496.30 L 57.59,495.69 L 57.24,495.40 L 56.78,494.91 L 56.39,493.67 L 56.48,493.33 L 56.18,492.50 L 55.95,492.05 L 54.92,490.91 L 54.30,490.29 L 52.40,488.71 L 51.86,488.29 L 50.61,487.33 L 48.45,485.73 L 47.40,484.97 L 45.69,483.72 L 44.89,483.13 L 43.63,482.16 L 43.04,481.70 L 42.15,480.93 L 41.75,480.57 L 41.19,479.93 L 40.70,479.32 L 40.43,478.16 L 40.62,475.96 L 40.75,475.17 L 40.66,473.53 L 40.60,473.09 L 40.34,472.07 L 40.19,471.54 L 39.72,470.27 L 39.46,469.60 L 38.76,467.99 L 38.37,467.14 L 37.39,465.10 L 36.86,464.01 L 35.56,461.45 L 33.23,456.90 L 25.25,441.50 L 31.50,418.71 L 32.35,415.58 L 33.97,409.82 L 34.36,408.44 L 35.08,405.89 L 35.44,404.66 L 36.08,402.45 L 36.39,401.39 L 36.93,399.57 L 37.19,398.72 L 37.61,397.37 L 37.80,396.75 L 38.08,395.92 L 38.32,395.34 L 38.40,395.26 M 81.00,421.00 L 81.00,424.71 L 81.26,426.01 L 81.43,426.63 L 81.98,427.73 L 82.28,428.26 L 83.05,429.13 L 83.46,429.53 L 84.39,430.13 L 84.86,430.40 L 85.88,430.70 L 86.39,430.81 L 87.43,430.76 L 87.95,430.70 L 88.95,430.28 L 89.44,430.02 L 90.33,429.18 L 90.78,428.69 L 91.68,426.97 L 92.61,424.18 L 93.25,421.00 M 51.69,395.19 L 49.96,397.02 L 49.19,398.01 L 47.73,400.04 L 47.13,401.09 L 44.39,405.89 L 47.17,401.02 L 47.77,399.98 L 49.22,397.98 L 49.98,396.99 L 51.70,395.17 L 52.59,394.29 L 54.26,392.92 L 52.57,394.30 M 54.50,392.72 L 57.50,390.74 L 54.49,392.72 M 76.54,392.73 L 76.65,393.19 L 76.54,392.73 Z" fill="rgba(225,225,225,1)"/>
<path d="M 53.65,423.75 L 53.45,423.44 L 52.79,422.27 L 52.42,421.61 L 51.49,419.89 L 48.27,413.78 L 44.29,406.06 L 47.13,401.09 L 47.73,400.04 L 49.19,398.01 L 49.96,397.02 L 51.69,395.19 L 52.57,394.30 L 54.49,392.72 L 57.50,390.74 L 57.66,390.65 L 57.90,390.94 L 58.01,391.15 L 58.15,392.02 L 58.21,392.52 L 58.24,393.94 L 58.16,396.63 L 58.11,397.66 L 58.07,399.40 L 58.07,400.22 L 58.17,401.57 L 58.23,402.21 L 58.50,403.22 L 58.65,403.69 L 59.12,404.41 L 59.39,404.73 L 60.10,405.21 L 60.49,405.42 L 61.48,405.70 L 62.02,405.81 L 63.33,405.94 L 65.70,406.00 L 66.87,406.00 L 68.64,405.90 L 69.44,405.82 L 70.71,405.48 L 71.30,405.27 L 72.37,404.60 L 74.08,403.08 L 74.63,402.52 L 75.47,401.49 L 75.85,400.98 L 76.37,399.95 L 76.60,399.42 L 76.86,398.27 L 77.00,396.28 L 77.00,395.21 L 76.65,393.19 L 76.54,392.73 L 76.27,391.97 L 75.80,391.20 L 75.63,391.03 L 74.79,390.72 L 74.30,390.57 L 72.94,390.32 L 72.21,390.21 L 70.46,390.05 L 67.55,389.94 L 66.83,389.93 L 65.61,389.91 L 65.03,389.90 L 64.11,389.86 L 63.68,389.84 L 63.02,389.79 L 62.73,389.76 L 62.33,389.69 L 62.00,389.61 L 62.03,389.37 L 63.00,388.85 L 63.51,388.65 L 64.75,388.36 L 65.40,388.24 L 66.87,388.12 L 68.39,388.04 L 71.84,388.33 L 73.59,388.55 L 77.07,389.38 L 81.73,391.17 L 86.65,393.73 L 91.08,391.11 L 92.02,390.55 L 93.65,389.76 L 94.46,389.41 L 96.14,388.97 L 97.03,388.78 L 99.21,388.59 L 99.80,388.56 L 101.16,388.52 L 103.50,388.50 L 104.37,388.50 L 105.87,388.52 L 106.59,388.54 L 107.84,388.59 L 109.04,388.67 L 110.93,388.98 L 111.83,389.18 L 113.48,389.82 L 116.22,391.27 L 117.36,391.95 L 119.70,393.87 L 120.85,394.91 L 123.00,397.31 L 124.03,398.54 L 125.71,401.08 L 127.41,404.68 L 127.53,405.07 L 127.46,406.18 L 127.37,406.80 L 126.87,408.46 L 126.56,409.36 L 125.59,411.64 L 123.57,415.85 L 122.95,417.09 L 121.74,419.39 L 121.15,420.50 L 120.08,422.39 L 119.58,423.26 L 118.79,424.52 L 118.04,425.48 L 117.88,425.58 L 117.25,425.58 L 116.90,425.55 L 115.95,425.33 L 115.44,425.19 L 114.26,424.78 L 113.64,424.55 L 112.30,423.98 L 110.94,423.38 L 108.10,421.87 L 104.35,419.45 L 103.90,419.11 L 102.52,418.21 L 101.76,417.74 L 99.95,416.69 L 93.95,413.54 L 92.57,412.88 L 90.40,411.94 L 89.39,411.52 L 87.82,411.03 L 87.10,410.83 L 85.95,410.74 L 84.49,411.00 L 83.92,411.22 L 82.58,411.80 L 81.87,412.11 L 80.33,412.83 L 78.77,413.58 L 75.54,415.26 L 74.77,415.67 L 73.33,416.47 L 72.65,416.86 L 71.48,417.56 L 70.94,417.89 L 70.14,418.43 L 69.50,419.00 L 69.41,419.15 L 68.78,419.64 L 68.40,419.91 L 67.31,420.59 L 66.13,421.30 L 63.08,422.94 L 61.54,423.74 L 58.70,425.07 L 58.06,425.35 L 57.04,425.75 L 56.05,426.00 L 55.78,426.00 L 54.93,425.34 L 54.49,424.93 M 110.43,401.43 L 110.86,401.00 L 111.54,399.92 L 112.00,398.50 L 112.00,398.02 L 111.53,396.99 L 111.23,396.48 L 110.34,395.54 L 109.86,395.09 L 108.76,394.44 L 107.13,394.00 L 106.63,394.00 L 105.75,394.26 L 105.33,394.43 L 104.62,394.96 L 104.28,395.26 L 103.75,395.99 L 103.51,396.37 L 103.19,397.22 L 102.93,398.09 L 103.15,399.86 L 103.27,400.27 L 103.72,401.02 L 104.75,401.92 L 105.37,402.28 L 106.42,402.70 L 106.93,402.87 L 107.84,402.89 L 108.28,402.85 L 109.13,402.47 L 109.55,402.23 Z" fill="rgba(236,218,199,1)"/>
</g>
</svg>